<?xml version="1.0" encoding="UTF-8" standalone="no"?>
<svg
   xmlns:dc="http://purl.org/dc/elements/1.1/"
   xmlns:cc="http://creativecommons.org/ns#"
   xmlns:rdf="http://www.w3.org/1999/02/22-rdf-syntax-ns#"
   xmlns:svg="http://www.w3.org/2000/svg"
   xmlns="http://www.w3.org/2000/svg"
   viewBox="0 0 251.96001 340.61334"
   height="340.61334"
   width="251.96001"
   xml:space="preserve"
   id="svg2"
   version="1.1"><metadata
     id="metadata8"><rdf:RDF><cc:Work
         rdf:about=""><dc:format>image/svg+xml</dc:format><dc:type
           rdf:resource="http://purl.org/dc/dcmitype/StillImage" /></cc:Work></rdf:RDF></metadata><defs
     id="defs6"><clipPath
       id="clipPath24"
       clipPathUnits="userSpaceOnUse"><path
         id="path22"
         d="m 945.48,2094.98 c -277.16,0 -431.882,-47.53 -485.539,-67.93 l -3.695,-1.42 -0.148,-3.97 c -1.133,-27.13 -3.024,-80.89 -3.024,-136.11 0,-58.46 2.086,-103.14 6.203,-132.79 l 2.282,-17.88 c 7.308,-58.98 22.507,-181.63 90.375,-328.23 81.586,-176.11 213.16,-330.03 391.004,-457.38 l 3.5,-2.5 3.484,2.5 c 177.858,127.35 309.398,281.27 390.988,457.38 67.89,146.57 83.06,269.25 90.36,328.23 l 2.28,17.88 c 4.14,29.65 6.21,74.29 6.21,132.75 0,55.38 -1.89,109.08 -3,136.15 l -0.18,3.97 -3.67,1.42 c -53.65,20.4 -208.4,67.93 -485.547,67.93 z" /></clipPath></defs><g
     transform="matrix(1.3333333,0,0,-1.3333333,0,340.61333)"
     id="g10"><g
       transform="scale(0.1)"
       id="g12"><path
         id="path14"
         style="fill:#2b2b2f;fill-opacity:1;fill-rule:nonzero;stroke:none"
         d="m 1885.82,1615.45 c 0,-518.64 -420.44,-939.071 -939.074,-939.071 -518.644,0 -939.10537,420.431 -939.10537,939.071 0,518.64 420.46137,939.1 939.10537,939.1 518.634,0 939.074,-420.46 939.074,-939.1" /><path
         id="path16"
         style="fill:#b9c5a4;fill-opacity:1;fill-rule:nonzero;stroke:none"
         d="m 1648.86,1615.45 c 0,-387.78 -314.37,-702.11 -702.141,-702.11 -387.75,0 -702.11,314.33 -702.11,702.11 0,387.77 314.36,702.13 702.11,702.13 387.771,0 702.141,-314.36 702.141,-702.13" /><g
         id="g18"><g
           clip-path="url(#clipPath24)"
           id="g20"><path
             id="path26"
             style="fill:#565c45;fill-opacity:1;fill-rule:nonzero;stroke:none"
             d="m 437.965,878.262 h 337.266 v 1293.52 H 437.965 Z" /><path
             id="path28"
             style="fill:#565c45;fill-opacity:1;fill-rule:nonzero;stroke:none"
             d="m 1128,878.398 h 337.27 v 1293.48 H 1128 Z" /><path
             id="path30"
             style="fill:#b9c5a4;fill-opacity:1;fill-rule:nonzero;stroke:none"
             d="m 1127.9,2181.71 0.01,-1303.562 h -87.98 V 2181.71 h 87.97" /><path
             id="path32"
             style="fill:#b9c5a4;fill-opacity:1;fill-rule:nonzero;stroke:none"
             d="m 775.23,878.91 h 88.3047 v 1302.8 H 775.23 Z" /><path
             id="path34"
             style="fill:#2b2b2f;fill-opacity:1;fill-rule:nonzero;stroke:none"
             d="m 863.535,878.762 h 176.395 v 1303.57 H 863.535 Z" /></g></g><path
         id="path36"
         style="fill:#2b2b2f;fill-opacity:1;fill-rule:nonzero;stroke:none"
         d="M 206.582,550.629 H 318.227 L 216.453,0 H 101.77 L 0,550.629 H 111.645 L 121.52,480 l 37.21,-284.809 37.981,286.321 9.871,69.117" /><path
         id="path38"
         style="fill:#2b2b2f;fill-opacity:1;fill-rule:nonzero;stroke:none"
         d="M 458.738,454.18 V 264.309 h 53.922 c 8.356,0 10.637,3.031 10.637,11.382 v 167.09 c 0,6.84 -3.039,11.399 -10.637,11.399 z M 631.902,224.051 c 0,-24.301 -17.468,-48.61 -49.363,-48.61 L 640.258,0 H 526.332 l -53.164,175.441 h -14.43 V 0 H 348.613 v 550.629 h 208.864 c 51.64,0 74.425,-28.098 74.425,-71.391 V 224.051" /><path
         id="path40"
         style="fill:#2b2b2f;fill-opacity:1;fill-rule:nonzero;stroke:none"
         d="M 679.004,550.629 H 783.809 L 840.012,329.621 V 550.629 H 953.176 V 0 H 840.012 L 780.777,230.129 V 0 H 679.004 v 550.629" /><path
         id="path42"
         style="fill:#2b2b2f;fill-opacity:1;fill-rule:nonzero;stroke:none"
         d="m 1119.51,454.18 c -7.6,0 -9.87,-3.801 -9.87,-10.641 V 107.852 c 0,-8.3637 1.51,-11.4028 10.63,-11.4028 h 41.77 c 9.12,0 10.63,3.0391 10.63,11.4028 v 335.687 c 0,6.84 -2.27,10.641 -9.87,10.641 z M 1284.32,78.2188 C 1284.32,36.4492 1266.85,0 1205.33,0 h -127.59 c -61.52,0 -78.978,36.4492 -78.978,78.2188 V 479.238 c 0,43.293 22.768,71.391 74.418,71.391 h 136.71 c 51.65,0 74.43,-28.098 74.43,-71.391 V 78.2188" /><path
         id="path44"
         style="fill:#2b2b2f;fill-opacity:1;fill-rule:nonzero;stroke:none"
         d="m 1442.3,155.699 h 50.89 l -25.06,195.192 z M 1430.16,68.3594 1420.28,0 h -110.89 l 99.51,550.629 h 117.71 L 1626.1,0 h -110.89 l -9.87,68.3594 h -75.18" /><path
         id="path46"
         style="fill:#2b2b2f;fill-opacity:1;fill-rule:nonzero;stroke:none"
         d="m 1656.49,550.629 h 214.18 l 18.99,-102.539 h -120 V 317.469 h 91.14 v -94.938 h -91.14 V 0 h -113.17 v 550.629" /></g></g></svg>