<?xml version="1.0" encoding="UTF-8" standalone="no"?>
<svg
   xmlns:dc="http://purl.org/dc/elements/1.1/"
   xmlns:cc="http://creativecommons.org/ns#"
   xmlns:rdf="http://www.w3.org/1999/02/22-rdf-syntax-ns#"
   xmlns:svg="http://www.w3.org/2000/svg"
   xmlns="http://www.w3.org/2000/svg"
   viewBox="0 0 262.60001 305.58667"
   height="305.58667"
   width="262.60001"
   xml:space="preserve"
   id="svg2"
   version="1.1"><metadata
     id="metadata8"><rdf:RDF><cc:Work
         rdf:about=""><dc:format>image/svg+xml</dc:format><dc:type
           rdf:resource="http://purl.org/dc/dcmitype/StillImage" /></cc:Work></rdf:RDF></metadata><defs
     id="defs6"><clipPath
       id="clipPath20"
       clipPathUnits="userSpaceOnUse"><path
         id="path18"
         d="M 0,0 V 2292 H 1969 V 0 Z" /></clipPath><clipPath
       id="clipPath26"
       clipPathUnits="userSpaceOnUse"><path
         id="path24"
         d="m 982.852,2291.87 c -553.2,0 -862.024,-94.86 -969.1372,-135.64 l -7.36714,-2.81 -0.3125,-7.88 C 3.78906,2091.34 0,1984.04 0,1873.81 0,1757.11 4.17969,1667.94 12.4102,1608.77 l 4.5429,-35.74 C 31.543,1455.41 61.8789,1210.55 197.34,917.941 360.195,566.41 622.828,259.18 977.793,4.98828 L 984.766,0 l 6.98,4.98828 C 1346.73,259.18 1609.31,566.41 1772.13,917.941 c 135.51,292.549 165.83,537.419 180.36,655.089 l 4.58,35.74 c 8.23,59.17 12.4,148.31 12.4,264.96 0,110.54 -3.79,217.75 -6.01,271.81 l -0.35,7.88 -7.34,2.81 c -107.1,40.78 -415.96,135.64 -969.161,135.64 z" /></clipPath></defs><g
     transform="matrix(1.3333333,0,0,-1.3333333,0,305.58667)"
     id="g10"><g
       transform="scale(0.1)"
       id="g12"><g
         id="g14"><g
           clip-path="url(#clipPath20)"
           id="g16"><g
             clip-path="url(#clipPath26)"
             id="g22"><path
               id="path28"
               style="fill:#d51e25;fill-opacity:1;fill-rule:nonzero;stroke:none"
               d="M 0,0 H 643.066 V 2445.12 H 0 Z" /><path
               id="path30"
               style="fill:#d51e25;fill-opacity:1;fill-rule:nonzero;stroke:none"
               d="m 1347.17,0 h 673.207 V 2445.31 H 1347.17 Z" /><path
               id="path32"
               style="fill:#ffffff;fill-opacity:1;fill-rule:nonzero;stroke:none"
               d="M 1346.99,2464.98 1347,-136.961 H 1171.4 V 2464.98 h 175.59" /><path
               id="path34"
               style="fill:#ffffff;fill-opacity:1;fill-rule:nonzero;stroke:none"
               d="m 819.273,2464.98 0.036,-2600.421 H 643.066 V 2464.98 h 176.207" /><path
               id="path36"
               style="fill:#222f62;fill-opacity:1;fill-rule:nonzero;stroke:none"
               d="M 1171.4,2466.19 V -135.738 H 819.309 L 819.273,2466.19 H 1171.4" /></g></g></g></g></g></svg>