<?xml version="1.0" encoding="UTF-8" standalone="no"?>
<svg
   xmlns:dc="http://purl.org/dc/elements/1.1/"
   xmlns:cc="http://creativecommons.org/ns#"
   xmlns:rdf="http://www.w3.org/1999/02/22-rdf-syntax-ns#"
   xmlns:svg="http://www.w3.org/2000/svg"
   xmlns="http://www.w3.org/2000/svg"
   viewBox="0 0 277.58667 89.866669"
   height="89.866669"
   width="277.58667"
   xml:space="preserve"
   id="svg2"
   version="1.1"><metadata
     id="metadata8"><rdf:RDF><cc:Work
         rdf:about=""><dc:format>image/svg+xml</dc:format><dc:type
           rdf:resource="http://purl.org/dc/dcmitype/StillImage" /></cc:Work></rdf:RDF></metadata><defs
     id="defs6" /><g
     transform="matrix(1.3333333,0,0,-1.3333333,0,89.866667)"
     id="g10"><g
       transform="scale(0.1)"
       id="g12"><path
         id="path14"
         style="fill:#2b2b2f;fill-opacity:1;fill-rule:nonzero;stroke:none"
         d="M 77.0352,268.047 114.98,108.645 113.727,108.34 39.9297,259.211 0,249.707 59.125,1.32813 90.2539,8.73047 53.3594,163.738 l 1.2578,0.305 74.3128,-146.0938 38.668,9.1992 -59.121,248.3786 -31.4418,-7.48" /><path
         id="path16"
         style="fill:#2b2b2f;fill-opacity:1;fill-rule:nonzero;stroke:none"
         d="m 244.602,72.8047 c -1.207,-2.3047 -4.879,-4.043 -11.016,-5.2149 -5.93,-1.125 -9.91,-0.9492 -11.945,0.5352 -2.036,1.4766 -3.575,4.9609 -4.614,10.4688 L 196.309,187.832 c -1,5.281 -0.829,8.992 0.523,11.113 1.352,2.118 4.988,3.743 10.922,4.864 5.918,1.132 9.891,1.004 11.914,-0.371 2.008,-1.375 3.539,-4.805 4.586,-10.313 L 244.965,83.8984 c 0.957,-5.082 0.84,-8.7812 -0.363,-11.0937 z m 10.421,129.7733 c -1.683,8.899 -3.671,15.86 -5.937,20.918 -2.27,5.039 -5.324,8.692 -9.148,10.93 -3.829,2.234 -8.786,3.211 -14.872,2.937 -6.082,-0.285 -13.781,-1.308 -23.093,-3.066 -9.321,-1.77 -16.868,-3.645 -22.621,-5.606 -5.774,-1.972 -10.082,-4.707 -12.914,-8.211 -2.852,-3.5 -4.36,-8.007 -4.512,-13.515 -0.168,-5.52 0.594,-12.715 2.277,-21.606 L 186.188,69.4648 c 1.687,-8.8984 3.613,-15.8789 5.781,-20.9492 2.168,-5.0703 5.215,-8.7109 9.144,-10.9258 3.926,-2.2187 8.938,-3.1953 15.032,-2.9101 6.082,0.2812 13.781,1.2969 23.101,3.0625 9.313,1.7695 16.848,3.6367 22.613,5.6094 5.774,1.9687 10.02,4.6953 12.766,8.1718 2.738,3.4883 4.242,7.9883 4.508,13.5274 0.265,5.5234 -0.445,12.7305 -2.125,21.6289 L 255.023,202.578" /><path
         id="path18"
         style="fill:#2b2b2f;fill-opacity:1;fill-rule:nonzero;stroke:none"
         d="m 364.707,251.27 c -5.215,4.863 -13.367,6.445 -24.434,4.746 -7.89,-1.219 -14.011,-3.528 -18.398,-6.922 -4.375,-3.403 -7.41,-7.414 -9.102,-12.031 l -1.972,12.781 -30.336,-4.668 29.437,-191.3362 32.586,5.0079 -23.55,153.0073 c 1.265,7.383 5.515,11.641 12.761,12.754 5.528,0.852 9.297,0.45 11.297,-1.211 2.004,-1.648 3.391,-5.031 4.184,-10.136 l 6.726,-43.77 29.395,4.524 -7.324,47.593 c -2.305,14.907 -6.055,24.789 -11.27,29.661" /><path
         id="path20"
         style="fill:#2b2b2f;fill-opacity:1;fill-rule:nonzero;stroke:none"
         d="m 521.184,131.465 -1.289,-0.149 -31.332,142.141 -42.696,-4.91 0.18,-145.727 -1.281,-0.144 -26.512,142.695 -34.992,-4.031 44.289,-189.7775 44.629,5.1484 -0.45,147.9691 1.29,0.144 29.656,-144.6092 44.316,5.0977 4.512,195.3905 -35,-4.031 4.68,-145.207" /><path
         id="path22"
         style="fill:#2b2b2f;fill-opacity:1;fill-rule:nonzero;stroke:none"
         d="m 605.488,244.148 c -0.508,6.223 -0.019,10.266 1.446,12.122 1.472,1.843 5.214,3.007 11.23,3.496 5.801,0.476 9.629,-0.086 11.484,-1.661 1.856,-1.582 3.04,-5.476 3.543,-11.707 l 3.34,-41.242 -27.703,-2.234 z m 64.383,-82.332 -29.629,-2.402 2.113,-26.094 c 0.504,-6.218 -0.031,-10.32 -1.601,-12.285 -1.574,-1.972 -5.258,-3.183 -11.059,-3.64 -6.011,-0.5 -9.89,0.105 -11.66,1.804 -1.746,1.692 -2.879,5.645 -3.387,11.875 l -3.679,45.43 57.344,4.648 -5.684,70.215 c -0.742,9.024 -1.914,16.16 -3.527,21.446 -1.622,5.273 -4.153,9.23 -7.618,11.867 -3.457,2.644 -8.007,4.16 -13.652,4.57 -5.664,0.398 -12.996,0.23 -22.019,-0.488 -9.458,-0.762 -17.141,-1.828 -23.086,-3.164 -5.95,-1.36 -10.52,-3.618 -13.711,-6.789 -3.215,-3.184 -5.188,-7.5 -5.93,-12.969 -0.742,-5.457 -0.75,-12.703 -0.02,-21.719 l 9.532,-117.59 c 0.722,-9.019 1.894,-16.172 3.515,-21.433 1.614,-5.2855 4.27,-9.2191 7.93,-11.8441 3.66,-2.6172 8.547,-4.1133 14.629,-4.4922 6.086,-0.3633 13.848,-0.1679 23.301,0.5938 9.023,0.7343 16.289,1.7578 21.797,3.0664 5.515,1.3086 9.777,3.5469 12.753,6.7109 2.989,3.1642 4.856,7.4692 5.594,12.9372 0.754,5.457 0.754,12.696 0.031,21.731 l -2.277,28.015" /><path
         id="path24"
         style="fill:#2b2b2f;fill-opacity:1;fill-rule:nonzero;stroke:none"
         d="m 742.117,138.027 c -5.594,-0.312 -9.312,0.547 -11.14,2.61 -1.844,2.051 -2.95,6.316 -3.309,12.761 l -5.305,95.196 c -0.371,6.457 0.254,10.801 1.856,13.047 1.601,2.246 5.195,3.535 10.793,3.847 6.883,0.379 11.902,-2.683 15.078,-9.199 l 5.996,-107.449 c -2.434,-6.836 -7.082,-10.442 -13.969,-10.813 z m 38.117,158.133 -30.656,-1.695 0.793,-14.199 c -3.32,5.418 -7.363,9.246 -12.129,11.453 -4.765,2.219 -11.015,3.117 -18.762,2.676 -6.453,-0.352 -11.699,-1.29 -15.703,-2.813 -4.011,-1.523 -7.129,-3.855 -9.324,-6.992 -2.195,-3.145 -3.586,-7.277 -4.16,-12.371 -0.586,-5.11 -0.664,-11.426 -0.234,-18.957 l 6.004,-107.774 c 0.414,-7.324 1.183,-13.476 2.328,-18.484 1.14,-5.012 2.925,-8.957 5.347,-11.848 2.434,-2.883 5.735,-4.914 9.895,-6.086 4.16,-1.16 9.472,-1.57 15.93,-1.199 7.312,0.402 13.113,1.856 17.402,4.363 4.273,2.5 7.476,5.969 9.605,10.403 l 1.391,-24.844 c 0.406,-7.3047 -0.715,-12.2735 -3.371,-14.9102 -2.664,-2.6289 -7.656,-4.1523 -14.973,-4.5547 l -34.519,-1.9297 1.55,-27.7539 42.27,2.3633 c 16.348,0.9063 27.703,5.3203 34.062,13.2227 6.356,7.9179 9.09,19.7148 8.219,35.4179 L 780.234,296.16" /><path
         id="path26"
         style="fill:#2b2b2f;fill-opacity:1;fill-rule:nonzero;stroke:none"
         d="m 843.438,360.352 -32.618,-1.219 1.25,-33.598 32.618,1.223 -1.25,33.594" /><path
         id="path28"
         style="fill:#2b2b2f;fill-opacity:1;fill-rule:nonzero;stroke:none"
         d="m 813.125,297.441 7.234,-193.457 32.629,1.219 -7.246,193.457 -32.617,-1.219" /><path
         id="path30"
         style="fill:#2b2b2f;fill-opacity:1;fill-rule:nonzero;stroke:none"
         d="m 932.898,131.398 c -2.156,-0.16 -5.593,-0.285 -10.339,-0.375 -3.016,-0.066 -5.442,0.161 -7.286,0.657 -1.835,0.5 -3.203,1.433 -4.089,2.824 -0.903,1.387 -1.477,3.262 -1.743,5.625 -0.261,2.359 -0.425,5.371 -0.503,9.043 l -0.625,30.371 c -0.137,6.68 0.464,11.211 1.824,13.621 1.347,2.395 5.144,3.652 11.394,3.789 3.664,0.07 6.574,0.02 8.735,-0.144 2.156,-0.176 3.992,-0.684 5.527,-1.504 l 1.297,-63.34 c -0.645,-0.227 -2.039,-0.422 -4.192,-0.567 z m 31.106,154.024 c -1.399,5.351 -3.801,9.461 -7.195,12.305 -3.411,2.832 -8.125,4.617 -14.18,5.359 -6.047,0.73 -13.918,1.008 -23.613,0.801 -8.828,-0.176 -16.036,-0.75 -21.621,-1.739 -5.586,-0.964 -9.961,-2.937 -13.125,-5.918 -3.176,-2.976 -5.305,-7.167 -6.372,-12.578 -1.082,-5.398 -1.531,-12.636 -1.343,-21.679 l 0.476,-22.95 30.047,0.618 -0.39,19.07 c -0.125,6.457 0.531,10.891 1.996,13.293 1.453,2.398 5.093,3.66 10.906,3.777 6.035,0.117 9.988,-0.82 11.863,-2.82 1.867,-2.023 2.883,-6.574 3.027,-13.684 l 0.825,-40.066 c -1.535,0.828 -3.813,1.48 -6.828,1.961 -3.039,0.476 -8.211,0.644 -15.539,0.488 l -6.129,-0.129 c -10.774,-0.215 -18.313,-3.074 -22.621,-8.543 -4.305,-5.476 -6.336,-14.023 -6.102,-25.664 l 0.957,-46.855 c 0.176,-8.184 0.898,-14.739 2.187,-19.668 1.29,-4.942 3.458,-8.66 6.536,-11.184 3.062,-2.515 7.246,-4.156 12.547,-4.91 5.292,-0.754 12.031,-1.047 20.214,-0.879 12.93,0.266 23.368,0.75 31.336,1.453 7.95,0.696 13.867,1.621 17.715,2.778 l -3.191,155.75 c -0.188,9.05 -0.977,16.25 -2.383,21.613" /><path
         id="path32"
         style="fill:#2b2b2f;fill-opacity:1;fill-rule:nonzero;stroke:none"
         d="m 1085.84,294.98 c -2.69,3.02 -6.24,5.196 -10.64,6.497 -4.42,1.304 -9.86,1.968 -16.32,2 -8.19,0.031 -14.71,-1.192 -19.56,-3.653 -4.86,-2.461 -8.49,-6.062 -10.86,-10.793 l 0.04,12.934 -30.707,0.105 -0.664,-193.593 32.971,-0.118 0.53,155.457 c 1.3,3.008 3.09,5.434 5.36,7.258 2.27,1.817 5.55,2.727 9.86,2.715 5.61,-0.019 9.37,-0.996 11.31,-2.949 1.92,-1.942 2.89,-5.402 2.87,-10.352 l -0.53,-152.215 32.97,-0.121 0.53,155.786 c 0.03,7.539 -0.49,13.835 -1.55,18.906 -1.06,5.066 -2.93,9.109 -5.61,12.136" /><path
         id="path34"
         style="fill:#2b2b2f;fill-opacity:1;fill-rule:nonzero;stroke:none"
         d="m 1247.88,309.609 -3.93,-117.566 -31.34,1.043 3.93,117.578 c 0.15,4.297 0.42,7.805 0.84,10.481 0.41,2.671 1.23,4.695 2.47,6.062 1.22,1.356 2.86,2.273 4.94,2.742 2.07,0.473 4.71,0.649 7.93,0.551 3.24,-0.117 5.92,-0.473 8.06,-1.086 2.13,-0.605 3.71,-1.633 4.75,-3.066 1.02,-1.446 1.71,-3.516 2.06,-6.211 0.33,-2.715 0.43,-6.219 0.29,-10.528 z m 28.12,43.039 c -3.86,4.012 -9.15,6.778 -15.89,8.297 -6.75,1.516 -15.39,2.453 -25.95,2.805 -10.55,0.359 -19.23,0.051 -26.06,-0.906 -6.82,-0.957 -12.23,-3.254 -16.23,-6.899 -4.01,-3.64 -6.83,-8.933 -8.46,-15.886 -1.63,-6.954 -2.65,-16.348 -3.05,-28.184 l -6.83,-204.797 36.17,-1.211 1.9,56.86 31.33,-1.055 -1.9,-56.848 37.14,-1.238 6.86,204.781 c 0.37,11.418 -0.08,20.649 -1.35,27.696 -1.27,7.042 -3.83,12.582 -7.68,16.585" /><path
         id="path36"
         style="fill:#2b2b2f;fill-opacity:1;fill-rule:nonzero;stroke:none"
         d="m 1317.34,323.469 32.6,-1.711 1.77,33.555 -32.61,1.718 -1.76,-33.562" /><path
         id="path38"
         style="fill:#2b2b2f;fill-opacity:1;fill-rule:nonzero;stroke:none"
         d="m 1305.68,102.063 32.59,-1.711 10.19,193.32 -32.6,1.719 -10.18,-193.328" /><path
         id="path40"
         style="fill:#2b2b2f;fill-opacity:1;fill-rule:nonzero;stroke:none"
         d="m 1442.08,289.18 c -7.95,0.566 -14.44,-0.332 -19.46,-2.664 -5.03,-2.344 -8.89,-5.586 -11.55,-9.719 l 0.91,12.898 -30.62,2.18 -13.7,-193.1133 32.88,-2.3359 10.95,154.4262 c 2.88,6.921 7.95,10.125 15.27,9.609 5.58,-0.402 9.17,-1.621 10.75,-3.684 1.58,-2.05 2.2,-5.664 1.83,-10.82 l -3.14,-44.172 29.66,-2.097 3.41,48.039 c 1.06,15.039 -0.41,25.515 -4.42,31.414 -4.01,5.898 -11.6,9.25 -22.77,10.039" /><path
         id="path42"
         style="fill:#2b2b2f;fill-opacity:1;fill-rule:nonzero;stroke:none"
         d="m 1588.85,267.246 4.05,37.598 36.94,-3.985 3.29,30.528 -73.91,7.949 -27.31,-253.8477 36.96,-3.9727 16.7,155.2034 35.66,-3.836 3.28,30.523 -35.66,3.84" /><path
         id="path44"
         style="fill:#2b2b2f;fill-opacity:1;fill-rule:nonzero;stroke:none"
         d="m 1700.5,218.66 -14.82,-110.176 c -0.69,-5.125 -1.97,-8.6012 -3.84,-10.4176 -1.88,-1.8047 -5.91,-2.293 -12.1,-1.4648 -5.99,0.8086 -9.71,2.2265 -11.18,4.2774 -1.45,2.043 -1.81,5.84 -1.07,11.387 l 14.82,110.195 c 0.73,5.332 2.06,8.801 4.01,10.383 1.95,1.59 5.92,1.969 11.9,1.172 5.98,-0.801 9.7,-2.18 11.18,-4.114 1.48,-1.941 1.85,-5.683 1.1,-11.242 z m 27.92,34.238 c -2.92,3.332 -7.31,5.825 -13.18,7.485 -5.86,1.66 -13.49,3.125 -22.89,4.383 -9.39,1.257 -17.14,1.875 -23.23,1.828 -6.09,-0.063 -11.04,-1.301 -14.84,-3.711 -3.81,-2.422 -6.66,-6.235 -8.55,-11.406 -1.9,-5.188 -3.44,-12.258 -4.65,-21.223 L 1625.35,113.34 c -1.21,-8.977 -1.58,-16.2111 -1.12,-21.6994 0.45,-5.5078 2.2,-9.9101 5.22,-13.2617 3.03,-3.3398 7.47,-5.8398 13.34,-7.5 5.86,-1.6484 13.5,-3.1133 22.89,-4.3867 9.4,-1.2578 17.14,-1.8633 23.24,-1.8242 6.09,0.0586 10.99,1.3008 14.68,3.7383 3.7,2.4335 6.56,6.2343 8.56,11.3984 1.99,5.1758 3.59,12.2383 4.8,21.2033 l 15.73,116.914 c 1.21,8.973 1.53,16.211 0.96,21.719 -0.56,5.515 -2.3,9.929 -5.23,13.257" /><path
         id="path46"
         style="fill:#2b2b2f;fill-opacity:1;fill-rule:nonzero;stroke:none"
         d="m 1851.58,229.934 c -3.43,6.238 -10.67,10.3 -21.72,12.144 -7.86,1.32 -14.4,1.059 -19.63,-0.801 -5.23,-1.863 -9.37,-4.714 -12.41,-8.574 l 2.13,12.758 -30.28,5.066 -31.96,-190.9372 32.5,-5.4492 25.57,152.6834 c 3.51,6.621 8.88,9.328 16.1,8.125 5.52,-0.926 8.98,-2.488 10.37,-4.683 1.36,-2.2 1.64,-5.84 0.78,-10.942 l -7.31,-43.672 29.33,-4.91 7.95,47.488 c 2.48,14.875 2.01,25.442 -1.42,31.704" /><path
         id="path48"
         style="fill:#2b2b2f;fill-opacity:1;fill-rule:nonzero;stroke:none"
         d="m 1925.88,149.004 29.44,-6.024 6.82,33.25 c 1.72,8.438 2.6,15.411 2.64,20.899 0.01,5.488 -1.26,10 -3.85,13.484 -2.58,3.496 -6.56,6.352 -11.94,8.547 -5.38,2.207 -12.5,4.207 -21.36,6.028 -9.3,1.902 -16.99,3.035 -23.06,3.406 -6.08,0.359 -11.05,-0.547 -14.91,-2.727 -3.86,-2.176 -6.96,-5.777 -9.3,-10.801 -2.35,-5.007 -4.43,-11.953 -6.24,-20.816 L 1850.45,78.6836 c -1.76,-8.6641 -2.62,-15.7461 -2.54,-21.25 0.08,-5.5313 1.52,-10.0508 4.33,-13.5859 2.78,-3.543 6.98,-6.3868 12.59,-8.5274 5.62,-2.1367 13.17,-4.1758 22.67,-6.1211 8.44,-1.7265 15.49,-2.7226 21.15,-3.0078 5.67,-0.2734 10.41,0.6172 14.25,2.6875 3.83,2.0664 6.93,5.6719 9.3,10.8008 2.37,5.1172 4.46,12.1172 6.28,20.9726 l 10.69,52.2457 -29.44,6.028 -10.05,-49.0705 c -1.04,-5.0703 -2.61,-8.4297 -4.71,-10.0899 -2.11,-1.6601 -5.89,-1.9336 -11.38,-0.8125 -5.9,1.2149 -9.53,2.8946 -10.85,5.0391 -1.32,2.1328 -1.42,5.9414 -0.29,11.4375 l 22.3,108.9183 c 1.12,5.488 2.65,8.914 4.58,10.281 1.93,1.355 5.94,1.418 12.08,0.168 5.47,-1.125 8.89,-2.707 10.24,-4.738 1.34,-2.039 1.46,-5.801 0.33,-11.289 l -6.1,-29.766" /><path
         id="path50"
         style="fill:#2b2b2f;fill-opacity:1;fill-rule:nonzero;stroke:none"
         d="m 2048.85,152.617 -10.05,-40.137 -26.96,6.75 10.04,40.125 c 1.51,6.067 3.27,9.739 5.25,11.016 1.99,1.277 5.9,1.192 11.76,-0.273 5.64,-1.414 9.09,-3.164 10.35,-5.254 1.25,-2.09 1.11,-6.16 -0.39,-12.227 z m 29.59,30.41 c -2.43,3.606 -6.26,6.504 -11.49,8.703 -5.22,2.188 -12.22,4.383 -21,6.583 -9.21,2.3 -16.83,3.757 -22.88,4.39 -6.07,0.637 -11.13,-0.047 -15.18,-2.039 -4.05,-1.973 -7.3,-5.437 -9.76,-10.383 -2.46,-4.929 -4.78,-11.797 -6.99,-20.574 L 1962.52,55.2734 c -2.19,-8.7812 -3.37,-15.9257 -3.53,-21.4336 -0.16,-5.5273 1.08,-10.1093 3.72,-13.7617 2.64,-3.6601 6.79,-6.6406 12.43,-8.9336 5.64,-2.29684 13.06,-4.60153 22.25,-6.90622 8.79,-2.19531 16,-3.554686 21.64,-4.08203 5.65,-0.515625 10.38,0.234375 14.23,2.27734 3.84,2.03125 6.98,5.52735 9.45,10.45701 2.45,4.9414 4.78,11.7969 6.98,20.5782 l 6.81,27.2734 -28.83,7.2187 -6.36,-25.3945 c -1.52,-6.0742 -3.33,-9.7734 -5.45,-11.1289 -2.12,-1.3594 -6,-1.3398 -11.64,0.0781 -5.85,1.4649 -9.34,3.2813 -10.46,5.4492 -1.12,2.1563 -0.93,6.2774 0.59,12.3438 l 11.06,44.207 55.8,-13.9648 17.11,68.3592 c 2.19,8.778 3.36,15.918 3.53,21.438 0.15,5.507 -0.99,10.066 -3.41,13.679" /><path
         id="path52"
         style="fill:#2b2b2f;fill-opacity:1;fill-rule:nonzero;stroke:none"
         d="m 492.109,389.348 1.407,257.351 -38.172,-4.617 5.547,-209.965 -1.289,-0.152 -42.766,205.453 -37.859,-4.582 59.238,-250.016 53.894,6.528" /><path
         id="path54"
         style="fill:#2b2b2f;fill-opacity:1;fill-rule:nonzero;stroke:none"
         d="m 552.844,618.535 -3.274,33.453 -32.492,-3.187 3.281,-33.449 32.485,3.183" /><path
         id="path56"
         style="fill:#2b2b2f;fill-opacity:1;fill-rule:nonzero;stroke:none"
         d="m 541.98,394.703 32.485,3.18 -18.879,192.668 -32.481,-3.188 18.875,-192.66" /><path
         id="path58"
         style="fill:#2b2b2f;fill-opacity:1;fill-rule:nonzero;stroke:none"
         d="m 673.152,593.469 c -4.839,5.238 -12.847,7.426 -24.019,6.554 -7.949,-0.613 -14.231,-2.46 -18.86,-5.519 -4.621,-3.066 -7.949,-6.836 -9.98,-11.316 l -1.008,12.89 -30.601,-2.387 15.046,-193.007 32.872,2.562 -12.032,154.344 c 1.797,7.269 6.36,11.195 13.66,11.762 5.586,0.437 9.309,-0.25 11.184,-2.047 1.863,-1.801 3.008,-5.278 3.406,-10.43 l 3.442,-44.148 29.644,2.312 -3.75,48.008 c -1.16,15.035 -4.168,25.176 -9.004,30.422" /><path
         id="path60"
         style="fill:#2b2b2f;fill-opacity:1;fill-rule:nonzero;stroke:none"
         d="m 693.477,574.668 11.933,0.687 7.195,-125.511 c 0.415,-7.102 1.516,-13.196 3.313,-18.266 1.797,-5.074 4.629,-9.18 8.477,-12.301 3.847,-3.125 8.835,-5.324 14.953,-6.589 6.101,-1.266 13.574,-1.653 22.39,-1.145 l 8.391,0.484 -1.606,28.067 -6.128,-0.348 c -6.457,-0.371 -10.832,0.563 -13.11,2.809 -2.293,2.242 -3.621,6.699 -4.004,13.363 l -6.953,121.324 22.59,1.293 -1.531,26.781 -22.602,-1.293 -3.355,58.727 -32.91,-1.887 3.359,-58.73 -11.938,-0.684 1.536,-26.781" /><path
         id="path62"
         style="fill:#2b2b2f;fill-opacity:1;fill-rule:nonzero;stroke:none"
         d="m 878.176,610.121 -33.266,-1.234 5.774,-155.672 c -1.18,-3.063 -2.813,-5.547 -4.891,-7.457 -2.094,-1.914 -5.285,-2.945 -9.594,-3.106 -5.594,-0.207 -9.297,0.676 -11.094,2.661 -1.804,1.984 -2.792,5.339 -2.957,10.078 l -5.664,152.441 -32.929,-1.219 5.769,-155.675 c 0.285,-7.75 1.059,-14.141 2.324,-19.157 1.262,-5.019 3.247,-8.988 5.942,-11.91 2.691,-2.918 6.265,-4.887 10.73,-5.906 4.453,-1.012 9.922,-1.41 16.375,-1.172 7.961,0.297 14.27,1.719 18.918,4.262 4.649,2.539 8.075,6.226 10.266,11.054 l 0.469,-12.589 31.004,1.144 -7.176,193.457" /><path
         id="path64"
         style="fill:#2b2b2f;fill-opacity:1;fill-rule:nonzero;stroke:none"
         d="m 964.492,442.168 c -2.156,-0.141 -5.605,-0.242 -10.344,-0.313 -3.015,-0.042 -5.437,0.188 -7.285,0.704 -1.843,0.507 -3.203,1.457 -4.082,2.847 -0.886,1.387 -1.453,3.262 -1.687,5.629 -0.254,2.367 -0.41,5.375 -0.469,9.043 l -0.449,30.383 c -0.086,6.672 0.539,11.211 1.902,13.605 1.367,2.383 5.18,3.625 11.43,3.715 3.66,0.055 6.57,-0.011 8.726,-0.187 2.153,-0.192 3.989,-0.703 5.52,-1.539 l 0.93,-63.34 c -0.649,-0.231 -2.043,-0.406 -4.192,-0.547 z m 34.258,132.223 c -0.137,9.047 -0.891,16.254 -2.266,21.621 -1.379,5.359 -3.75,9.48 -7.129,12.34 -3.386,2.855 -8.093,4.671 -14.14,5.453 -6.043,0.765 -13.914,1.082 -23.613,0.941 -8.836,-0.133 -16.043,-0.672 -21.622,-1.609 -5.593,-0.946 -9.992,-2.891 -13.171,-5.856 -3.188,-2.949 -5.344,-7.133 -6.45,-12.535 -1.101,-5.41 -1.582,-12.633 -1.453,-21.68 l 0.34,-22.945 30.051,0.445 -0.281,19.063 c -0.098,6.465 0.593,10.891 2.07,13.285 1.473,2.395 5.113,3.629 10.934,3.719 6.027,0.082 9.972,-0.879 11.835,-2.903 1.868,-2.019 2.844,-6.582 2.954,-13.691 l 0.586,-40.074 c -1.528,0.84 -3.79,1.504 -6.821,2.004 -3.023,0.492 -8.191,0.687 -15.515,0.582 l -6.141,-0.09 c -10.773,-0.16 -18.332,-2.965 -22.668,-8.418 -4.336,-5.453 -6.414,-13.992 -6.25,-25.629 l 0.691,-46.851 c 0.122,-8.196 0.813,-14.754 2.075,-19.688 1.257,-4.945 3.406,-8.676 6.464,-11.223 3.055,-2.539 7.223,-4.199 12.516,-4.984 5.285,-0.781 12.031,-1.117 20.219,-0.996 12.93,0.187 23.367,0.621 31.336,1.269 7.961,0.657 13.879,1.555 17.739,2.688 l -2.29,155.762" /><path
         id="path66"
         style="fill:#2b2b2f;fill-opacity:1;fill-rule:nonzero;stroke:none"
         d="m 1062.34,673.844 -32.96,0.117 -0.87,-255.324 32.95,-0.114 0.88,255.321" /><path
         id="path68"
         style="fill:#2b2b2f;fill-opacity:1;fill-rule:nonzero;stroke:none"
         d="m 1189.32,639.789 15.84,-0.441 c 3.43,-0.098 6.23,-0.446 8.37,-1.047 2.13,-0.602 3.72,-1.668 4.75,-3.203 1.04,-1.539 1.69,-3.555 1.93,-6.039 0.26,-2.485 0.33,-5.778 0.22,-9.86 l -0.89,-31.344 c -0.16,-6.25 -1.26,-10.527 -3.26,-12.839 -2.01,-2.317 -6.03,-3.383 -12.06,-3.215 l -16.8,0.469 z m -2.72,-96.918 16.8,-0.469 c 6.46,-0.179 10.52,-1.648 12.17,-4.382 1.64,-2.747 2.37,-7.559 2.17,-14.45 l -3.01,-107.586 37.47,-1.05 2.86,101.765 c 0.19,7.11 -0.18,12.942 -1.13,17.489 -0.95,4.558 -2.41,8.316 -4.37,11.281 -1.97,2.969 -4.34,5.179 -7.09,6.664 -2.76,1.48 -5.86,2.695 -9.28,3.652 l 0.04,1.301 c 2.6,0.57 5.27,1.406 7.99,2.519 2.73,1.102 5.25,2.922 7.6,5.446 2.33,2.523 4.25,5.855 5.77,10.023 1.52,4.16 2.37,9.574 2.56,16.254 l 0.75,26.817 c 0.31,11.195 -0.14,20.21 -1.34,27.035 -1.22,6.816 -3.76,12.175 -7.63,16.054 -3.88,3.879 -9.25,6.512 -16.11,7.887 -6.86,1.379 -15.78,2.223 -26.77,2.531 l -52.97,1.489 -7.17,-255.227 37.16,-1.039 3.53,125.996" /><path
         id="path70"
         style="fill:#2b2b2f;fill-opacity:1;fill-rule:nonzero;stroke:none"
         d="m 1344.39,562.727 -5.85,-111.028 c -0.27,-5.16 -1.26,-8.719 -2.98,-10.679 -1.73,-1.965 -5.72,-2.778 -11.95,-2.446 -6.02,0.317 -9.85,1.43 -11.47,3.356 -1.63,1.914 -2.3,5.672 -1.99,11.269 l 5.85,111.024 c 0.28,5.379 1.32,8.937 3.15,10.679 1.82,1.731 5.73,2.446 11.76,2.129 6.02,-0.316 9.85,-1.386 11.48,-3.191 1.63,-1.817 2.31,-5.52 2,-11.113 z m 32.14,1.863 c 0.48,9.039 0.22,16.281 -0.79,21.73 -1,5.442 -3.1,9.711 -6.29,12.793 -3.17,3.078 -7.76,5.203 -13.74,6.387 -5.98,1.172 -13.7,2.016 -23.16,2.52 -9.47,0.492 -17.25,0.468 -23.31,-0.071 -6.07,-0.543 -10.91,-2.176 -14.5,-4.898 -3.6,-2.723 -6.14,-6.746 -7.59,-12.059 -1.47,-5.324 -2.44,-12.496 -2.92,-21.535 l -6.21,-117.797 c -0.47,-9.043 -0.27,-16.285 0.63,-21.722 0.9,-5.446 3,-9.704 6.29,-12.79 3.28,-3.085 7.92,-5.214 13.91,-6.394 5.96,-1.18 13.69,-2.02 23.16,-2.524 9.46,-0.496 17.24,-0.472 23.3,0.071 6.07,0.543 10.85,2.179 14.35,4.906 3.48,2.731 6.01,6.75 7.59,12.063 1.57,5.304 2.6,12.484 3.07,21.515 l 6.21,117.805" /><path
         id="path72"
         style="fill:#2b2b2f;fill-opacity:1;fill-rule:nonzero;stroke:none"
         d="m 1459.15,450.266 c -1.75,-2.895 -3.81,-5.168 -6.21,-6.813 -2.4,-1.644 -5.43,-2.332 -9.07,-2.043 -5.6,0.442 -9.38,1.817 -11.35,4.133 -1.98,2.312 -2.72,6.699 -2.22,13.141 l 10.93,139.187 -32.87,2.582 -11.4,-145.312 c -0.6,-7.735 -0.57,-14.168 0.11,-19.297 0.67,-5.129 2.18,-9.305 4.53,-12.516 2.34,-3.211 5.56,-5.57 9.66,-7.078 4.09,-1.508 9.36,-2.52 15.8,-3.023 7.31,-0.571 13.35,0.086 18.15,1.976 4.79,1.899 8.54,4.895 11.25,9.012 l -1.95,-24.813 c -0.57,-7.297 -2.41,-12.078 -5.5,-14.32 -3.1,-2.234 -8.3,-3.074 -15.59,-2.504 l -35.13,2.758 -2.18,-27.707 43.19,-3.391 c 16.32,-1.277 28.21,1.575 35.68,8.543 7.45,6.985 11.81,18.317 13.04,33.992 l 15.39,196.227 -32.86,2.578 -11.4,-145.312" /><path
         id="path74"
         style="fill:#2b2b2f;fill-opacity:1;fill-rule:nonzero;stroke:none"
         d="m 1548.67,436.516 3.22,30.203 c 0.71,6.64 1.88,11.07 3.53,13.281 1.64,2.203 5.57,2.984 11.79,2.313 3.63,-0.383 6.51,-0.797 8.64,-1.243 2.11,-0.441 3.89,-1.175 5.29,-2.187 l -6.72,-62.988 c -0.65,-0.149 -2.07,-0.165 -4.22,-0.04 -2.15,0.118 -5.59,0.434 -10.3,0.93 -3.01,0.324 -5.38,0.848 -7.15,1.574 -1.75,0.727 -3,1.836 -3.71,3.325 -0.7,1.484 -1.04,3.41 -1,5.796 0.04,2.379 0.25,5.391 0.63,9.036 z m 5.78,-46.442 c 12.85,-1.379 23.27,-2.207 31.25,-2.523 8,-0.305 13.97,-0.133 17.94,0.531 l 16.5,154.902 c 0.96,8.993 1.08,16.246 0.37,21.739 -0.72,5.488 -2.58,9.859 -5.59,13.109 -3.02,3.242 -7.48,5.609 -13.38,7.109 -5.91,1.497 -13.69,2.758 -23.33,3.786 -8.79,0.937 -16,1.269 -21.67,1.011 -5.66,-0.269 -10.25,-1.672 -13.78,-4.226 -3.51,-2.547 -6.15,-6.438 -7.9,-11.672 -1.75,-5.231 -3.09,-12.348 -4.06,-21.34 l -2.42,-22.82 29.88,-3.18 2.01,18.961 c 0.69,6.426 1.91,10.734 3.67,12.934 1.74,2.195 5.51,2.988 11.29,2.371 6,-0.637 9.8,-2.075 11.41,-4.301 1.6,-2.235 2.03,-6.879 1.28,-13.949 l -4.25,-39.856 c -1.41,1.016 -3.58,1.953 -6.52,2.813 -2.95,0.851 -8.06,1.672 -15.34,2.449 l -6.12,0.648 c -10.71,1.141 -18.54,-0.734 -23.5,-5.621 -4.97,-4.886 -8.06,-13.113 -9.3,-24.687 l -4.96,-46.602 c -0.87,-8.14 -0.97,-14.742 -0.32,-19.789 0.65,-5.058 2.33,-9.027 5.07,-11.922 2.72,-2.883 6.67,-5.039 11.82,-6.457 5.17,-1.414 11.81,-2.554 19.95,-3.418" /><path
         id="path76"
         style="fill:#2b2b2f;fill-opacity:1;fill-rule:nonzero;stroke:none"
         d="m 1696.34,633.551 -32.7,4.226 -32.75,-253.207 32.69,-4.226 32.76,253.207" /></g></g></svg>