<?xml version="1.0" encoding="UTF-8" standalone="no"?>
<svg
   xmlns:dc="http://purl.org/dc/elements/1.1/"
   xmlns:cc="http://creativecommons.org/ns#"
   xmlns:rdf="http://www.w3.org/1999/02/22-rdf-syntax-ns#"
   xmlns:svg="http://www.w3.org/2000/svg"
   xmlns="http://www.w3.org/2000/svg"
   xmlns:sodipodi="http://sodipodi.sourceforge.net/DTD/sodipodi-0.dtd"
   xmlns:inkscape="http://www.inkscape.org/namespaces/inkscape"
   viewBox="0 0 250.42667 250.42667"
   height="250.42667"
   width="250.42667"
   xml:space="preserve"
   id="svg2"
   version="1.1"
   inkscape:version="0.91 r13725"
   sodipodi:docname="vrnoaf_roundel_notext_camo.svg"><sodipodi:namedview
     pagecolor="#ffffff"
     bordercolor="#666666"
     borderopacity="1"
     objecttolerance="10"
     gridtolerance="10"
     guidetolerance="10"
     inkscape:pageopacity="0"
     inkscape:pageshadow="2"
     inkscape:window-width="1920"
     inkscape:window-height="1057"
     id="namedview3352"
     showgrid="false"
     inkscape:zoom="2.547652"
     inkscape:cx="67.316886"
     inkscape:cy="93.81187"
     inkscape:window-x="-8"
     inkscape:window-y="-8"
     inkscape:window-maximized="1"
     inkscape:current-layer="svg2" /><metadata
     id="metadata8"><rdf:RDF><cc:Work
         rdf:about=""><dc:format>image/svg+xml</dc:format><dc:type
           rdf:resource="http://purl.org/dc/dcmitype/StillImage" /></cc:Work></rdf:RDF></metadata><defs
     id="defs6"><clipPath
       id="clipPath24"
       clipPathUnits="userSpaceOnUse"><path
         id="path22"
         d="m 937.836,1418.6 c -277.156,0 -431.879,-47.53 -485.535,-67.93 l -3.696,-1.43 -0.148,-3.95 c -1.133,-27.14 -3.023,-80.9 -3.023,-136.12 0,-58.46 2.086,-103.14 6.203,-132.79 l 2.281,-17.88 c 7.309,-58.98 22.508,-181.629 90.375,-328.23 81.586,-176.11 213.156,-330.032 391.004,-457.379 l 3.496,-2.5 3.488,2.5 c 177.859,127.347 309.389,281.269 390.989,457.379 67.89,146.57 83.06,269.25 90.36,328.23 l 2.28,17.88 c 4.13,29.65 6.2,74.3 6.2,132.75 0,55.38 -1.88,109.07 -2.99,136.16 l -0.18,3.95 -3.67,1.43 c -53.65,20.4 -208.4,67.93 -485.547,67.93 z" /></clipPath></defs><g
     transform="matrix(1.3333333,0,0,-1.3333333,0,250.42667)"
     id="g10"><g
       transform="scale(0.1)"
       id="g12"><path
         style="fill:#2b2b2f;fill-opacity:1;fill-rule:nonzero;stroke:none"
         d="M 125.21484 0.00390625 C 56.062312 0.00390625 1.9450228e-016 56.066218 0 125.21875 C -1.8947806e-014 194.37021 56.062312 250.42578 125.21484 250.42578 C 194.36618 250.42578 250.42383 194.37021 250.42383 125.21875 C 250.42383 56.066218 194.36618 0.00390625 125.21484 0.00390625 z M 125.21094 31.599609 C 176.91387 31.599609 218.83008 73.515551 218.83008 125.21875 C 218.83008 176.92235 176.91387 218.83203 125.21094 218.83203 C 73.510939 218.83203 31.595703 176.92235 31.595703 125.21875 C 31.595703 73.515551 73.510939 31.599609 125.21094 31.599609 z "
         transform="matrix(7.5000002,0,0,-7.5000002,0,1878.2001)"
         id="path14" /><g
         id="g18"><g
           clip-path="url(#clipPath24)"
           id="g20"><path
             id="path26"
             style="fill:#565c45;fill-opacity:1;fill-rule:nonzero;stroke:none"
             d="m 430.32,201.879 h 337.27 v 1293.52 H 430.32 Z" /><path
             id="path28"
             style="fill:#565c45;fill-opacity:1;fill-rule:nonzero;stroke:none"
             d="m 1120.36,202.02 h 337.27 V 1495.5 h -337.27 z" /><path
             id="path30"
             style="fill:#b9c5a4;fill-opacity:1;fill-rule:nonzero;stroke:none"
             d="m 1120.26,1505.33 0.01,-1303.56 h -87.98 v 1303.56 h 87.97" /><path
             id="path32"
             style="fill:#b9c5a4;fill-opacity:1;fill-rule:nonzero;stroke:none"
             d="m 767.59,202.531 h 88.3047 v 1302.8 H 767.59 Z" /><path
             id="path34"
             style="fill:#2b2b2f;fill-opacity:1;fill-rule:nonzero;stroke:none"
             d="m 855.895,202.379 h 176.395 v 1303.57 H 855.895 Z" /></g></g></g></g></svg>