<?xml version="1.0" encoding="UTF-8" standalone="no"?>
<svg
   xmlns:dc="http://purl.org/dc/elements/1.1/"
   xmlns:cc="http://creativecommons.org/ns#"
   xmlns:rdf="http://www.w3.org/1999/02/22-rdf-syntax-ns#"
   xmlns:svg="http://www.w3.org/2000/svg"
   xmlns="http://www.w3.org/2000/svg"
   xmlns:sodipodi="http://sodipodi.sourceforge.net/DTD/sodipodi-0.dtd"
   xmlns:inkscape="http://www.inkscape.org/namespaces/inkscape"
   viewBox="0 0 289.02667 304.61334"
   height="304.61334"
   width="289.02667"
   xml:space="preserve"
   id="svg2"
   version="1.1"
   sodipodi:docname="logo_camo.svg"
   inkscape:version="1.0.2 (e86c870879, 2021-01-15, custom)"><sodipodi:namedview
     pagecolor="#ffffff"
     bordercolor="#666666"
     borderopacity="1"
     objecttolerance="10"
     gridtolerance="10"
     guidetolerance="10"
     inkscape:pageopacity="0"
     inkscape:pageshadow="2"
     inkscape:window-width="2560"
     inkscape:window-height="1377"
     id="namedview1119"
     showgrid="false"
     inkscape:zoom="2.631153"
     inkscape:cx="124.10688"
     inkscape:cy="125.39367"
     inkscape:window-x="-8"
     inkscape:window-y="-8"
     inkscape:window-maximized="1"
     inkscape:current-layer="svg2" /><metadata
     id="metadata8"><rdf:RDF><cc:Work
         rdf:about=""><dc:format>image/svg+xml</dc:format><dc:type
           rdf:resource="http://purl.org/dc/dcmitype/StillImage" /></cc:Work></rdf:RDF></metadata><defs
     id="defs6"><clipPath
       id="clipPath98"
       clipPathUnits="userSpaceOnUse"><path
         id="path96"
         d="m 1082.54,1698.64 c -381.634,0 -594.673,-65.44 -668.579,-93.56 l -5.078,-1.94 -0.215,-5.44 c -1.559,-37.39 -4.164,-111.41 -4.164,-187.45 0,-80.51 2.883,-142.03 8.555,-182.84 l 3.136,-24.66 C 426.262,1121.6 447.184,952.672 540.637,750.801 652.992,508.281 834.176,296.34 1079.06,120.969 l 4.81,-3.43 4.82,3.43 c 244.9,175.371 426.02,387.312 538.36,629.832 93.49,201.84 114.4,370.759 124.42,451.949 l 3.16,24.66 c 5.7,40.81 8.56,102.3 8.56,182.78 0,76.25 -2.61,150.22 -4.15,187.51 l -0.25,5.44 -5.04,1.94 c -73.89,28.12 -286.97,93.56 -668.6,93.56 z" /></clipPath></defs><g
     transform="matrix(1.3333333,0,0,-1.3333333,0,304.61333)"
     id="g10"
     style="display:inline"><g
       transform="scale(0.1)"
       id="g12"
       inkscape:label="bird"
       style="display:inline"><path
         id="path14"
         style="display:inline;fill:#2b2b2f;fill-opacity:1;fill-rule:nonzero;stroke:none"
         d="m 375.121,1986.14 27.902,-117.21 -0.929,-0.22 -54.258,110.93 -29.359,-6.99 43.472,-182.63 22.891,5.45 -27.129,113.97 0.926,0.22 54.644,-107.42 28.434,6.77 -43.477,182.63 -23.117,-5.5" /><path
         id="path16"
         style="display:inline;fill:#2b2b2f;fill-opacity:1;fill-rule:nonzero;stroke:none"
         d="m 498.324,1842.58 c -0.886,-1.7 -3.59,-2.99 -8.105,-3.83 -4.356,-0.84 -7.281,-0.7 -8.778,0.39 -1.496,1.08 -2.628,3.64 -3.398,7.7 l -15.223,80.31 c -0.742,3.89 -0.613,6.61 0.379,8.17 1,1.56 3.672,2.75 8.028,3.59 4.355,0.82 7.281,0.73 8.757,-0.28 1.485,-1.01 2.61,-3.54 3.379,-7.58 l 15.231,-80.32 c 0.707,-3.74 0.617,-6.45 -0.27,-8.15 z m 7.66,95.42 c -1.234,6.54 -2.699,11.66 -4.363,15.38 -1.672,3.71 -3.918,6.39 -6.723,8.03 -2.82,1.65 -6.46,2.36 -10.929,2.16 -4.481,-0.21 -10.141,-0.96 -16.989,-2.25 -6.847,-1.3 -12.394,-2.68 -16.632,-4.13 -4.239,-1.44 -7.414,-3.45 -9.504,-6.03 -2.09,-2.57 -3.192,-5.89 -3.309,-9.94 -0.117,-4.05 0.445,-9.34 1.68,-15.89 l 16.156,-85.22 c 1.246,-6.53 2.664,-11.67 4.258,-15.39 1.586,-3.74 3.84,-6.4 6.723,-8.04 2.882,-1.63 6.57,-2.34 11.05,-2.14 4.469,0.21 10.133,0.96 16.989,2.26 6.843,1.3 12.382,2.67 16.625,4.12 4.242,1.46 7.367,3.45 9.39,6.01 2.004,2.56 3.117,5.87 3.309,9.94 0.203,4.07 -0.324,9.37 -1.563,15.91 L 505.984,1938" /><path
         id="path18"
         style="display:inline;fill:#2b2b2f;fill-opacity:1;fill-rule:nonzero;stroke:none"
         d="m 586.637,1973.79 c -3.832,3.59 -9.836,4.75 -17.969,3.5 -5.797,-0.89 -10.301,-2.6 -13.527,-5.09 -3.211,-2.51 -5.453,-5.45 -6.696,-8.84 l -1.441,9.39 -22.316,-3.43 21.66,-140.69 23.957,3.69 -17.321,112.5 c 0.922,5.43 4.051,8.56 9.379,9.37 4.067,0.63 6.84,0.34 8.305,-0.88 1.473,-1.22 2.5,-3.7 3.078,-7.47 l 4.949,-32.17 21.614,3.32 -5.391,35.01 c -1.688,10.95 -4.449,18.23 -8.281,21.79" /><path
         id="path20"
         style="display:inline;fill:#2b2b2f;fill-opacity:1;fill-rule:nonzero;stroke:none"
         d="m 701.684,1885.71 -0.942,-0.1 -23.027,104.5 -31.402,-3.61 0.128,-107.14 -0.937,-0.12 -19.504,104.92 -25.727,-2.96 32.575,-139.54 32.812,3.79 -0.328,108.79 0.945,0.11 21.805,-106.33 32.582,3.76 3.316,143.66 -25.734,-2.96 3.438,-106.77" /><path
         id="path22"
         style="display:inline;fill:#2b2b2f;fill-opacity:1;fill-rule:nonzero;stroke:none"
         d="m 763.676,1968.56 c -0.371,4.58 -0.016,7.55 1.066,8.92 1.082,1.35 3.836,2.21 8.254,2.57 4.27,0.34 7.082,-0.07 8.449,-1.23 1.364,-1.15 2.239,-4.03 2.598,-8.61 l 2.465,-30.31 -20.371,-1.66 z m 47.34,-60.53 -21.786,-1.76 1.555,-19.2 c 0.367,-4.58 -0.023,-7.59 -1.18,-9.03 -1.16,-1.45 -3.859,-2.34 -8.125,-2.68 -4.425,-0.36 -7.281,0.08 -8.574,1.32 -1.289,1.25 -2.121,4.16 -2.484,8.75 l -2.719,33.39 42.164,3.41 -4.179,51.64 c -0.543,6.64 -1.403,11.89 -2.598,15.77 -1.188,3.87 -3.047,6.79 -5.59,8.72 -2.535,1.95 -5.891,3.06 -10.043,3.36 -4.156,0.3 -9.551,0.18 -16.184,-0.36 -6.957,-0.56 -12.613,-1.34 -16.98,-2.33 -4.371,-0.99 -7.73,-2.65 -10.082,-4.99 -2.356,-2.33 -3.813,-5.51 -4.356,-9.52 -0.554,-4.03 -0.554,-9.35 -0.015,-15.97 l 6.996,-86.46 c 0.543,-6.64 1.41,-11.9 2.594,-15.77 1.183,-3.88 3.133,-6.78 5.836,-8.7 2.695,-1.93 6.277,-3.03 10.754,-3.31 4.472,-0.27 10.175,-0.13 17.132,0.44 6.633,0.54 11.969,1.29 16.028,2.25 4.058,0.97 7.175,2.61 9.375,4.93 2.191,2.33 3.57,5.5 4.113,9.52 0.551,4.01 0.555,9.34 0.027,15.97 l -1.679,20.61" /><path
         id="path24"
         style="display:inline;fill:#2b2b2f;fill-opacity:1;fill-rule:nonzero;stroke:none"
         d="m 864.141,1890.52 c -4.118,-0.22 -6.844,0.42 -8.2,1.93 -1.355,1.51 -2.168,4.64 -2.425,9.39 l -3.907,70 c -0.269,4.74 0.192,7.93 1.368,9.58 1.175,1.65 3.82,2.6 7.933,2.83 5.067,0.29 8.758,-1.97 11.094,-6.76 l 4.406,-79.01 c -1.789,-5.02 -5.211,-7.68 -10.269,-7.96 z m 28.023,116.29 -22.539,-1.26 0.578,-10.44 c -2.437,3.99 -5.414,6.8 -8.91,8.43 -3.516,1.63 -8.105,2.28 -13.797,1.96 -4.754,-0.25 -8.601,-0.95 -11.555,-2.06 -2.949,-1.12 -5.234,-2.83 -6.847,-5.15 -1.617,-2.31 -2.645,-5.34 -3.063,-9.09 -0.429,-3.75 -0.488,-8.4 -0.172,-13.93 l 4.414,-79.25 c 0.309,-5.38 0.875,-9.91 1.719,-13.59 0.836,-3.68 2.149,-6.58 3.93,-8.7 1.789,-2.12 4.211,-3.62 7.266,-4.49 3.066,-0.85 6.972,-1.15 11.714,-0.88 5.379,0.3 9.645,1.37 12.797,3.21 3.153,1.84 5.504,4.39 7.071,7.65 l 1.023,-18.26 c 0.301,-5.39 -0.535,-9.04 -2.48,-10.98 -1.969,-1.92 -5.625,-3.05 -11.004,-3.35 l -25.391,-1.42 1.141,-20.39 31.082,1.73 c 12.015,0.67 20.371,3.91 25.043,9.72 4.671,5.82 6.679,14.5 6.046,26.05 l -8.066,144.49" /><path
         id="path26"
         style="display:inline;fill:#2b2b2f;fill-opacity:1;fill-rule:nonzero;stroke:none"
         d="m 938.629,2054 -23.981,-0.89 0.926,-24.71 23.981,0.91 -0.926,24.69" /><path
         id="path28"
         style="display:inline;fill:#2b2b2f;fill-opacity:1;fill-rule:nonzero;stroke:none"
         d="m 916.348,2007.75 5.328,-142.25 23.984,0.9 -5.328,142.24 -23.984,-0.89" /><path
         id="path30"
         style="display:inline;fill:#2b2b2f;fill-opacity:1;fill-rule:nonzero;stroke:none"
         d="m 1004.42,1885.66 c -1.59,-0.12 -4.12,-0.21 -7.604,-0.27 -2.222,-0.05 -4.003,0.11 -5.355,0.47 -1.363,0.37 -2.363,1.07 -3.02,2.09 -0.648,1.01 -1.082,2.39 -1.269,4.12 -0.199,1.74 -0.32,3.96 -0.379,6.66 l -0.449,22.33 c -0.11,4.91 0.34,8.24 1.336,10.01 0.996,1.76 3.785,2.69 8.379,2.78 2.687,0.06 4.831,0.02 6.421,-0.1 1.59,-0.12 2.94,-0.5 4.06,-1.11 l 0.96,-46.57 c -0.47,-0.16 -1.51,-0.3 -3.08,-0.41 z m 22.87,113.25 c -1.03,3.94 -2.8,6.96 -5.29,9.04 -2.51,2.09 -5.97,3.4 -10.42,3.95 -4.46,0.54 -10.25,0.73 -17.369,0.59 -6.5,-0.13 -11.793,-0.56 -15.895,-1.28 -4.113,-0.71 -7.332,-2.16 -9.66,-4.35 -2.332,-2.19 -3.898,-5.28 -4.687,-9.25 -0.785,-3.98 -1.114,-9.29 -0.977,-15.95 l 0.344,-16.86 22.094,0.45 -0.293,14.02 c -0.082,4.75 0.394,8 1.472,9.77 1.071,1.76 3.746,2.69 8.032,2.78 4.422,0.09 7.329,-0.6 8.709,-2.09 1.37,-1.47 2.12,-4.81 2.23,-10.04 l 0.6,-29.46 c -1.12,0.61 -2.79,1.09 -5.02,1.45 -2.222,0.33 -6.039,0.46 -11.418,0.35 l -4.508,-0.1 c -7.925,-0.16 -13.472,-2.25 -16.636,-6.28 -3.164,-4.02 -4.653,-10.31 -4.481,-18.87 l 0.703,-34.44 c 0.125,-6.03 0.664,-10.85 1.606,-14.47 0.945,-3.63 2.543,-6.37 4.801,-8.22 2.253,-1.86 5.336,-3.06 9.226,-3.62 3.895,-0.55 8.848,-0.76 14.875,-0.64 9.502,0.19 17.172,0.55 23.022,1.06 5.85,0.52 10.2,1.21 13.03,2.06 l -2.34,114.51 c -0.14,6.65 -0.72,11.94 -1.75,15.89" /><path
         id="path32"
         style="display:inline;fill:#2b2b2f;fill-opacity:1;fill-rule:nonzero;stroke:none"
         d="m 1116.87,2005.94 c -1.97,2.22 -4.59,3.82 -7.83,4.78 -3.24,0.96 -7.25,1.44 -11.98,1.46 -6.04,0.03 -10.81,-0.87 -14.41,-2.68 -3.56,-1.81 -6.23,-4.46 -7.97,-7.93 l 0.04,9.5 -22.59,0.08 -0.48,-142.35 24.24,-0.07 0.39,114.3 c 0.96,2.21 2.27,3.99 3.93,5.33 1.67,1.34 4.08,2 7.27,2 4.1,-0.02 6.87,-0.75 8.31,-2.18 1.41,-1.42 2.12,-3.97 2.11,-7.61 l -0.39,-111.92 24.23,-0.08 0.4,114.53 c 0.01,5.55 -0.37,10.19 -1.15,13.92 -0.76,3.72 -2.16,6.69 -4.12,8.92" /><path
         id="path34"
         style="display:inline;fill:#2b2b2f;fill-opacity:1;fill-rule:nonzero;stroke:none"
         d="m 1236.01,2016.7 -2.89,-86.45 -23.04,0.77 2.89,86.44 c 0.12,3.18 0.32,5.74 0.61,7.71 0.31,1.98 0.92,3.46 1.83,4.46 0.89,1 2.11,1.67 3.62,2.02 1.52,0.34 3.47,0.48 5.86,0.4 2.36,-0.08 4.33,-0.35 5.91,-0.79 1.56,-0.46 2.72,-1.21 3.48,-2.26 0.76,-1.06 1.26,-2.57 1.52,-4.57 0.24,-1.99 0.32,-4.57 0.21,-7.73 z m 20.67,31.64 c -2.83,2.95 -6.72,4.98 -11.68,6.1 -4.95,1.12 -11.31,1.81 -19.07,2.06 -7.75,0.26 -14.15,0.04 -19.17,-0.66 -5.01,-0.7 -8.98,-2.4 -11.94,-5.07 -2.93,-2.68 -5.01,-6.57 -6.21,-11.68 -1.19,-5.11 -1.94,-12.03 -2.24,-20.73 l -5.03,-150.58 26.6,-0.89 1.39,41.8 23.05,-0.78 -1.4,-41.79 27.32,-0.91 5.03,150.58 c 0.27,8.38 -0.05,15.17 -0.99,20.36 -0.93,5.17 -2.82,9.24 -5.66,12.19" /><path
         id="path36"
         style="display:inline;fill:#2b2b2f;fill-opacity:1;fill-rule:nonzero;stroke:none"
         d="m 1287.08,2026.89 23.97,-1.26 1.3,24.68 -23.97,1.26 -1.3,-24.68" /><path
         id="path38"
         style="display:inline;fill:#2b2b2f;fill-opacity:1;fill-rule:nonzero;stroke:none"
         d="m 1278.5,1864.1 23.98,-1.27 7.5,142.15 -23.98,1.25 -7.5,-142.13" /><path
         id="path40"
         style="display:inline;fill:#2b2b2f;fill-opacity:1;fill-rule:nonzero;stroke:none"
         d="m 1378.8,2001.68 c -5.84,0.41 -10.61,-0.25 -14.31,-1.97 -3.69,-1.72 -6.53,-4.1 -8.48,-7.14 l 0.67,9.48 -22.52,1.6 -10.07,-141.99 24.17,-1.71 8.05,113.54 c 2.11,5.09 5.86,7.45 11.22,7.06 4.12,-0.29 6.75,-1.19 7.91,-2.7 1.18,-1.51 1.62,-4.17 1.34,-7.95 l -2.29,-32.48 21.79,-1.55 2.51,35.32 c 0.79,11.06 -0.3,18.76 -3.23,23.1 -2.96,4.34 -8.54,6.8 -16.76,7.39" /><path
         id="path42"
         style="display:inline;fill:#2b2b2f;fill-opacity:1;fill-rule:nonzero;stroke:none"
         d="m 1486.72,1985.54 2.97,27.64 27.18,-2.91 2.4,22.44 -54.32,5.85 -20.09,-186.66 27.17,-2.92 12.27,114.11 26.24,-2.81 2.4,22.44 -26.22,2.82" /><path
         id="path44"
         style="display:inline;fill:#2b2b2f;fill-opacity:1;fill-rule:nonzero;stroke:none"
         d="m 1568.82,1949.82 -10.9,-81.02 c -0.51,-3.76 -1.44,-6.31 -2.83,-7.64 -1.38,-1.34 -4.33,-1.7 -8.89,-1.08 -4.41,0.58 -7.13,1.63 -8.22,3.13 -1.08,1.51 -1.33,4.3 -0.79,8.39 l 10.9,81.02 c 0.54,3.92 1.5,6.46 2.95,7.63 1.43,1.16 4.35,1.45 8.74,0.87 4.4,-0.6 7.15,-1.61 8.23,-3.03 1.09,-1.43 1.36,-4.18 0.81,-8.27 z m 20.53,25.18 c -2.15,2.45 -5.38,4.28 -9.7,5.49 -4.31,1.23 -9.92,2.3 -16.82,3.24 -6.92,0.92 -12.61,1.36 -17.08,1.33 -4.5,-0.04 -8.13,-0.95 -10.92,-2.72 -2.8,-1.79 -4.89,-4.59 -6.29,-8.39 -1.39,-3.81 -2.52,-9.01 -3.41,-15.61 l -11.57,-85.96 c -0.89,-6.59 -1.17,-11.92 -0.81,-15.96 0.31,-4.04 1.6,-7.28 3.83,-9.74 2.22,-2.46 5.49,-4.3 9.81,-5.52 4.31,-1.22 9.91,-2.29 16.83,-3.23 6.9,-0.92 12.6,-1.37 17.08,-1.33 4.49,0.04 8.07,0.95 10.79,2.75 2.73,1.78 4.82,4.58 6.29,8.38 1.47,3.79 2.64,8.99 3.55,15.59 l 11.55,85.96 c 0.89,6.6 1.13,11.92 0.72,15.97 -0.42,4.05 -1.71,7.3 -3.85,9.75" /><path
         id="path46"
         style="display:inline;fill:#2b2b2f;fill-opacity:1;fill-rule:nonzero;stroke:none"
         d="m 1679.91,1958.11 c -2.53,4.6 -7.86,7.58 -15.98,8.93 -5.77,0.97 -10.6,0.78 -14.43,-0.59 -3.86,-1.37 -6.89,-3.47 -9.13,-6.3 l 1.57,9.37 -22.27,3.73 -23.5,-140.39 23.91,-4 18.79,112.27 c 2.58,4.87 6.54,6.85 11.85,5.96 4.05,-0.68 6.59,-1.83 7.61,-3.44 1.01,-1.62 1.21,-4.3 0.57,-8.04 l -5.37,-32.12 21.56,-3.61 5.84,34.92 c 1.85,10.93 1.5,18.71 -1.02,23.31" /><path
         id="path48"
         style="display:inline;fill:#2b2b2f;fill-opacity:1;fill-rule:nonzero;stroke:none"
         d="m 1734.54,1898.61 21.65,-4.43 5,24.45 c 1.27,6.2 1.92,11.32 1.94,15.36 0.01,4.04 -0.92,7.35 -2.81,9.92 -1.93,2.57 -4.84,4.66 -8.79,6.28 -3.97,1.62 -9.19,3.1 -15.71,4.44 -6.84,1.39 -12.49,2.22 -16.96,2.5 -4.47,0.26 -8.12,-0.4 -10.95,-2.01 -2.84,-1.6 -5.12,-4.25 -6.85,-7.94 -1.73,-3.69 -3.25,-8.79 -4.58,-15.3 l -17.4,-84.99 c -1.31,-6.36 -1.93,-11.57 -1.87,-15.62 0.05,-4.05 1.12,-7.38 3.17,-9.99 2.06,-2.6 5.13,-4.69 9.26,-6.26 4.12,-1.57 9.68,-3.07 16.67,-4.51 6.2,-1.27 11.38,-2 15.56,-2.21 4.16,-0.2 7.65,0.45 10.48,1.98 2.81,1.52 5.09,4.17 6.83,7.94 1.74,3.77 3.28,8.91 4.61,15.42 l 7.87,38.42 -21.65,4.43 -7.4,-36.08 c -0.76,-3.73 -1.9,-6.2 -3.45,-7.43 -1.55,-1.21 -4.33,-1.41 -8.36,-0.58 -4.36,0.89 -7.02,2.12 -7.98,3.69 -0.98,1.57 -1.06,4.38 -0.22,8.42 l 16.4,80.08 c 0.82,4.04 1.94,6.55 3.36,7.56 1.41,1 4.37,1.05 8.88,0.13 4.04,-0.83 6.55,-2 7.52,-3.49 0.99,-1.5 1.08,-4.26 0.25,-8.3 l -4.47,-21.88" /><path
         id="path50"
         style="display:inline;fill:#2b2b2f;fill-opacity:1;fill-rule:nonzero;stroke:none"
         d="m 1824.94,1901.25 -7.38,-29.5 -19.83,4.96 7.38,29.5 c 1.13,4.47 2.4,7.16 3.86,8.1 1.47,0.94 4.35,0.88 8.65,-0.2 4.15,-1.04 6.69,-2.32 7.61,-3.86 0.93,-1.54 0.83,-4.53 -0.29,-9 z m 21.76,22.37 c -1.78,2.65 -4.6,4.78 -8.44,6.4 -3.85,1.61 -8.98,3.22 -15.45,4.84 -6.76,1.7 -12.37,2.77 -16.82,3.23 -4.46,0.47 -8.18,-0.03 -11.14,-1.5 -3,-1.46 -5.39,-4.01 -7.19,-7.63 -1.81,-3.64 -3.52,-8.67 -5.14,-15.13 l -21.04,-84.15 c -1.61,-6.45 -2.48,-11.7 -2.6,-15.76 -0.12,-4.06 0.79,-7.42 2.74,-10.11 1.94,-2.7 4.98,-4.88 9.14,-6.57 4.15,-1.69 9.59,-3.39 16.35,-5.08 6.46,-1.61 11.77,-2.61 15.92,-3 4.14,-0.39 7.64,0.18 10.46,1.67 2.82,1.51 5.14,4.07 6.94,7.7 1.8,3.63 3.53,8.67 5.13,15.12 l 5.02,20.06 -21.21,5.31 -4.67,-18.67 c -1.11,-4.47 -2.45,-7.19 -4.01,-8.19 -1.55,-1 -4.41,-0.98 -8.56,0.06 -4.29,1.07 -6.85,2.41 -7.69,4.01 -0.82,1.59 -0.69,4.61 0.44,9.06 l 8.13,32.52 41.03,-10.27 12.58,50.26 c 1.62,6.45 2.48,11.71 2.59,15.76 0.1,4.05 -0.72,7.41 -2.51,10.06" /><path
         id="path52"
         style="display:inline;fill:#2b2b2f;fill-opacity:1;fill-rule:nonzero;stroke:none"
         d="m 680.316,2075.32 1.032,189.23 -28.071,-3.39 4.078,-154.39 -0.945,-0.11 -31.445,151.07 -27.836,-3.38 43.555,-183.82 39.632,4.79" /><path
         id="path54"
         style="display:inline;fill:#2b2b2f;fill-opacity:1;fill-rule:nonzero;stroke:none"
         d="m 724.973,2243.84 -2.41,24.59 -23.887,-2.33 2.41,-24.6 23.887,2.34" /><path
         id="path56"
         style="display:inline;fill:#2b2b2f;fill-opacity:1;fill-rule:nonzero;stroke:none"
         d="m 716.977,2079.26 23.89,2.34 -13.879,141.66 -23.886,-2.34 13.875,-141.66" /><path
         id="path58"
         style="display:inline;fill:#2b2b2f;fill-opacity:1;fill-rule:nonzero;stroke:none"
         d="m 813.43,2225.41 c -3.567,3.85 -9.45,5.46 -17.66,4.82 -5.848,-0.45 -10.465,-1.81 -13.868,-4.06 -3.402,-2.25 -5.843,-5.03 -7.336,-8.32 l -0.738,9.47 -22.512,-1.74 11.079,-141.92 24.164,1.89 -8.848,113.48 c 1.316,5.35 4.672,8.23 10.043,8.65 4.105,0.32 6.84,-0.18 8.219,-1.5 1.375,-1.33 2.211,-3.89 2.507,-7.67 l 2.536,-32.47 21.793,1.71 -2.75,35.29 c -0.864,11.06 -3.071,18.52 -6.629,22.37" /><path
         id="path60"
         style="display:inline;fill:#2b2b2f;fill-opacity:1;fill-rule:nonzero;stroke:none"
         d="m 828.375,2211.59 8.773,0.5 5.297,-92.29 c 0.293,-5.22 1.106,-9.69 2.426,-13.42 1.324,-3.74 3.406,-6.75 6.238,-9.05 2.829,-2.29 6.493,-3.91 10.981,-4.85 4.504,-0.93 9.988,-1.21 16.48,-0.84 l 6.172,0.36 -1.187,20.64 -4.5,-0.26 c -4.746,-0.27 -7.969,0.41 -9.645,2.07 -1.691,1.64 -2.668,4.91 -2.945,9.82 l -5.117,89.21 16.605,0.95 -1.121,19.69 -16.613,-0.95 -2.469,43.18 -24.195,-1.39 2.468,-43.18 -8.777,-0.5 1.129,-19.69" /><path
         id="path62"
         style="display:inline;fill:#2b2b2f;fill-opacity:1;fill-rule:nonzero;stroke:none"
         d="m 964.184,2237.66 -24.461,-0.91 4.242,-114.46 c -0.867,-2.25 -2.067,-4.09 -3.606,-5.49 -1.531,-1.41 -3.879,-2.17 -7.039,-2.28 -4.125,-0.15 -6.84,0.5 -8.164,1.95 -1.324,1.46 -2.051,3.93 -2.176,7.42 l -4.152,112.08 -24.226,-0.9 4.242,-114.46 c 0.215,-5.7 0.781,-10.4 1.719,-14.08 0.921,-3.7 2.382,-6.61 4.359,-8.76 1.98,-2.15 4.621,-3.59 7.891,-4.34 3.277,-0.75 7.289,-1.04 12.042,-0.87 5.86,0.22 10.493,1.27 13.911,3.14 3.418,1.86 5.929,4.57 7.547,8.13 l 0.343,-9.27 22.809,0.85 -5.281,142.25" /><path
         id="path64"
         style="display:inline;fill:#2b2b2f;fill-opacity:1;fill-rule:nonzero;stroke:none"
         d="m 1027.64,2114.16 c -1.58,-0.1 -4.11,-0.17 -7.6,-0.22 -2.22,-0.04 -4,0.13 -5.35,0.51 -1.36,0.37 -2.36,1.07 -3.01,2.1 -0.64,1.01 -1.06,2.39 -1.25,4.13 -0.18,1.74 -0.29,3.95 -0.33,6.66 l -0.33,22.33 c -0.07,4.9 0.39,8.24 1.4,10 1,1.75 3.8,2.67 8.4,2.74 2.69,0.04 4.83,-0.01 6.42,-0.14 1.58,-0.14 2.93,-0.52 4.05,-1.14 l 0.69,-46.56 c -0.48,-0.17 -1.51,-0.3 -3.09,-0.41 z m 25.19,97.22 c -0.1,6.65 -0.65,11.96 -1.66,15.9 -1,3.94 -2.75,6.96 -5.25,9.07 -2.48,2.1 -5.95,3.44 -10.39,4.01 -4.44,0.56 -10.23,0.8 -17.36,0.69 -6.5,-0.09 -11.8,-0.49 -15.9,-1.18 -4.118,-0.69 -7.344,-2.12 -9.688,-4.3 -2.344,-2.18 -3.93,-5.25 -4.734,-9.22 -0.821,-3.97 -1.168,-9.29 -1.075,-15.94 l 0.247,-16.87 22.1,0.32 -0.2,14.03 c -0.08,4.75 0.43,8 1.51,9.76 1.08,1.76 3.76,2.67 8.05,2.74 4.43,0.06 7.33,-0.65 8.7,-2.14 1.37,-1.49 2.09,-4.85 2.17,-10.07 l 0.43,-29.46 c -1.12,0.62 -2.79,1.11 -5.01,1.47 -2.22,0.37 -6.03,0.51 -11.42,0.43 l -4.51,-0.06 c -7.92,-0.13 -13.469,-2.19 -16.656,-6.2 -3.2,-4 -4.727,-10.28 -4.602,-18.84 l 0.504,-34.45 c 0.094,-6.02 0.598,-10.85 1.519,-14.48 0.93,-3.63 2.508,-6.38 4.766,-8.25 2.234,-1.86 5.309,-3.09 9.199,-3.66 3.89,-0.57 8.84,-0.82 14.87,-0.73 9.5,0.13 17.18,0.45 23.03,0.93 5.85,0.48 10.21,1.14 13.05,1.97 l -1.69,114.53" /><path
         id="path66"
         style="display:inline;fill:#2b2b2f;fill-opacity:1;fill-rule:nonzero;stroke:none"
         d="m 1099.59,2284.51 -24.23,0.08 -0.64,-187.73 24.23,-0.08 0.64,187.73" /><path
         id="path68"
         style="display:inline;fill:#2b2b2f;fill-opacity:1;fill-rule:nonzero;stroke:none"
         d="m 1192.96,2259.47 11.63,-0.33 c 2.54,-0.07 4.58,-0.33 6.17,-0.76 1.56,-0.45 2.73,-1.23 3.49,-2.36 0.76,-1.13 1.24,-2.62 1.42,-4.44 0.19,-1.83 0.24,-4.25 0.16,-7.25 l -0.64,-23.04 c -0.14,-4.61 -0.95,-7.74 -2.41,-9.45 -1.48,-1.7 -4.44,-2.48 -8.87,-2.36 l -12.35,0.34 z m -2.01,-71.26 12.37,-0.35 c 4.74,-0.13 7.73,-1.21 8.92,-3.23 1.21,-2.01 1.75,-5.55 1.62,-10.61 l -2.22,-79.11 27.54,-0.78 2.1,74.83 c 0.15,5.22 -0.12,9.51 -0.83,12.87 -0.69,3.34 -1.75,6.1 -3.2,8.29 -1.44,2.18 -3.18,3.81 -5.21,4.9 -2.03,1.09 -4.31,1.98 -6.83,2.68 l 0.04,0.96 c 1.9,0.42 3.87,1.03 5.87,1.85 2,0.81 3.87,2.15 5.58,4 1.72,1.86 3.13,4.31 4.25,7.38 1.12,3.06 1.74,7.03 1.88,11.95 l 0.55,19.72 c 0.24,8.22 -0.1,14.85 -0.98,19.87 -0.89,5.01 -2.77,8.95 -5.62,11.81 -2.85,2.85 -6.78,4.78 -11.84,5.8 -5.05,1.01 -11.61,1.63 -19.68,1.85 l -38.96,1.1 -5.25,-187.66 27.3,-0.76 2.6,92.64" /><path
         id="path70"
         style="display:inline;fill:#2b2b2f;fill-opacity:1;fill-rule:nonzero;stroke:none"
         d="m 1306.99,2202.81 -4.32,-81.64 c -0.19,-3.79 -0.92,-6.41 -2.2,-7.85 -1.26,-1.45 -4.18,-2.05 -8.77,-1.8 -4.43,0.23 -7.24,1.05 -8.43,2.47 -1.2,1.4 -1.69,4.17 -1.47,8.28 l 4.3,81.64 c 0.2,3.95 0.98,6.57 2.32,7.84 1.34,1.28 4.21,1.8 8.65,1.57 4.43,-0.23 7.24,-1.01 8.44,-2.34 1.18,-1.34 1.69,-4.06 1.48,-8.17 z m 23.63,1.37 c 0.35,6.64 0.16,11.96 -0.6,15.97 -0.73,4.01 -2.27,7.15 -4.61,9.4 -2.35,2.27 -5.72,3.84 -10.11,4.71 -4.4,0.86 -10.07,1.48 -17.04,1.85 -6.96,0.36 -12.66,0.34 -17.13,-0.06 -4.46,-0.39 -8.02,-1.6 -10.67,-3.6 -2.63,-2 -4.5,-4.96 -5.57,-8.86 -1.08,-3.91 -1.81,-9.19 -2.14,-15.84 l -4.58,-86.61 c -0.34,-6.65 -0.2,-11.98 0.48,-15.97 0.66,-4.01 2.2,-7.14 4.61,-9.4 2.43,-2.27 5.84,-3.84 10.23,-4.7 4.4,-0.87 10.06,-1.5 17.04,-1.86 6.97,-0.37 12.67,-0.34 17.13,0.05 4.45,0.4 7.96,1.6 10.55,3.61 2.55,2.01 4.42,4.97 5.57,8.87 1.16,3.9 1.91,9.18 2.26,15.82 l 4.58,86.62" /><path
         id="path72"
         style="display:inline;fill:#2b2b2f;fill-opacity:1;fill-rule:nonzero;stroke:none"
         d="m 1391.35,2120.12 c -1.28,-2.13 -2.79,-3.81 -4.56,-5.02 -1.77,-1.21 -3.99,-1.7 -6.68,-1.49 -4.1,0.32 -6.88,1.33 -8.34,3.03 -1.45,1.7 -2,4.93 -1.63,9.67 l 8.04,102.34 -24.16,1.9 -8.38,-106.85 c -0.46,-5.69 -0.43,-10.42 0.07,-14.19 0.51,-3.77 1.61,-6.83 3.33,-9.2 1.73,-2.36 4.09,-4.1 7.1,-5.2 3.01,-1.11 6.89,-1.85 11.62,-2.23 5.37,-0.42 9.81,0.07 13.34,1.46 3.53,1.39 6.28,3.59 8.27,6.62 l -1.44,-18.25 c -0.41,-5.36 -1.76,-8.87 -4.04,-10.53 -2.26,-1.64 -6.09,-2.25 -11.46,-1.83 l -25.82,2.03 -1.6,-20.38 31.74,-2.49 c 12,-0.94 20.75,1.15 26.25,6.28 5.48,5.13 8.67,13.47 9.58,24.99 l 11.32,144.28 -24.17,1.9 -8.38,-106.84" /><path
         id="path74"
         style="display:inline;fill:#2b2b2f;fill-opacity:1;fill-rule:nonzero;stroke:none"
         d="m 1457.18,2110 2.37,22.22 c 0.51,4.87 1.38,8.13 2.58,9.76 1.22,1.61 4.11,2.19 8.67,1.7 2.68,-0.28 4.8,-0.59 6.36,-0.91 1.57,-0.33 2.86,-0.87 3.89,-1.61 l -4.93,-46.32 c -0.49,-0.11 -1.54,-0.12 -3.11,-0.03 -1.58,0.09 -4.11,0.32 -7.58,0.69 -2.2,0.24 -3.96,0.63 -5.25,1.16 -1.3,0.54 -2.21,1.35 -2.72,2.44 -0.52,1.09 -0.78,2.51 -0.75,4.26 0.03,1.75 0.18,3.96 0.47,6.64 z m 4.24,-34.14 c 9.47,-1.01 17.13,-1.63 22.99,-1.86 5.87,-0.22 10.27,-0.09 13.19,0.39 l 12.12,113.9 c 0.72,6.61 0.81,11.94 0.28,15.98 -0.52,4.03 -1.89,7.25 -4.11,9.64 -2.21,2.38 -5.49,4.13 -9.84,5.23 -4.35,1.1 -10.07,2.03 -17.15,2.78 -6.45,0.69 -11.78,0.94 -15.94,0.74 -4.16,-0.19 -7.54,-1.22 -10.12,-3.1 -2.58,-1.87 -4.53,-4.74 -5.81,-8.58 -1.29,-3.85 -2.29,-9.07 -2.99,-15.69 l -1.78,-16.78 21.96,-2.34 1.49,13.94 c 0.51,4.73 1.4,7.89 2.69,9.51 1.28,1.61 4.06,2.2 8.31,1.74 4.42,-0.47 7.2,-1.52 8.38,-3.16 1.18,-1.64 1.5,-5.06 0.95,-10.25 l -3.12,-29.31 c -1.03,0.75 -2.64,1.44 -4.8,2.06 -2.17,0.63 -5.93,1.24 -11.29,1.8 l -4.48,0.48 c -7.88,0.84 -13.64,-0.54 -17.29,-4.13 -3.66,-3.59 -5.92,-9.65 -6.84,-18.15 l -3.64,-34.26 c -0.64,-5.99 -0.72,-10.84 -0.24,-14.55 0.48,-3.72 1.72,-6.64 3.73,-8.77 1.99,-2.12 4.89,-3.71 8.69,-4.76 3.79,-1.02 8.67,-1.86 14.66,-2.5" /><path
         id="path76"
         style="display:inline;fill:#2b2b2f;fill-opacity:1;fill-rule:nonzero;stroke:none"
         d="m 1565.76,2254.88 -24.05,3.11 -24.08,-186.17 24.04,-3.12 24.09,186.18" /><path
         id="path78"
         style="display:inline;fill:#b9c5a4;fill-opacity:1;fill-rule:nonzero;stroke:none"
         d="m 1622.12,985.691 0.05,-0.492 -0.87,-0.117 -406.37,-303.863 58.21,-294.778 -189.29,-128.66 -189.307,128.66 58.238,294.778 -543.269,406.201 c -40.324,28.16 -305.508,417.11 -358.4534,495.1 l -28.4531,41.89 760.3675,-154.07 212.558,-212.27 33.569,140.82 h 173.99 l 0.17,-109.73 181.47,181.18 3.71,0.75 756.65,153.32 -28.44,-41.89 c -52.95,-77.99 -318.16,-467 -358.45,-495.1 z m 520.94,648.769 -756.66,-153.33 -3.7,-0.74 -3.04,-0.61 -2.18,-2.18 -164.15,-163.93 v 95.47 h -192.32 l -1.88,-7.86 -29.325,-123 -199.586,199.32 -2.184,2.18 -3.019,0.61 L 24.6328,1634.46 0,1639.45 l 14.1328,-20.79 28.4414,-41.9 C 116.863,1467.35 362.168,1108.48 403.473,1079.14 L 941.477,676.879 884.488,388.43 l -1.312,-6.66 5.617,-3.809 189.297,-128.66 5.76,-3.91 5.76,3.91 189.3,128.66 5.61,3.809 -1.32,6.66 -56.96,288.449 399.1,298.422 8.02,1.14 -0.45,4.508 131.27,98.161 c 41.08,29.02 286.62,388.18 360.95,497.65 l 28.44,41.9 14.12,20.79 -24.63,-4.99" /><path
         id="path80"
         style="display:inline;fill:#231f20;fill-opacity:1;fill-rule:nonzero;stroke:none"
         d="m 1082.54,1777.59 c -489.278,0 -712.102,-105.14 -721.372,-109.62 l -21.105,-10.17 -1.184,-23.45 c -0.582,-11.37 -14.059,-279.81 3.855,-408.78 l 2.996,-23.59 c 10.5,-84.76 32.317,-261.128 130.5,-473.031 C 597.602,466.922 794.395,239.98 1061.24,54.3398 l 22.62,-15.7382 22.62,15.7382 c 266.85,185.6402 463.65,412.5822 584.99,674.5822 98.16,211.91 119.95,388.298 130.46,473.058 l 3.04,23.59 c 17.92,128.97 4.43,397.41 3.82,408.78 l -1.18,23.45 -21.13,10.17 c -9.23,4.48 -232.06,109.62 -721.33,109.62 h -2.61" /><path
         id="path82"
         style="display:inline;fill:#b9c5a4;fill-opacity:1;fill-rule:nonzero;stroke:none"
         d="M 1043.16,28.3398 C 772.367,216.66 571.402,448.031 447.477,715.641 v 0 C 347.234,931.82 324.84,1112.8 314.301,1197.98 v 0 l -2.977,23.4 c -7.445,54.05 -9.508,127.49 -9.543,198.34 v 0 c 0,108.05 5.082,209.07 5.449,216.23 v 0 l 2.133,42.25 38.032,18.32 c 13.421,6.51 241.335,112.8 735.135,112.76 V 1745.9 C 597.793,1745.88 380.055,1641.87 374.918,1639.43 v 0 l -4.164,-2 -0.231,-4.72 c -0.343,-6.53 -5.378,-106.87 -5.371,-212.99 v 0 c -0.039,-69.41 2.243,-141.73 8.969,-189.79 v 0 l 0.02,-0.15 3.031,-23.91 c 10.445,-84.2 31.68,-255.972 127.805,-463.6 v 0 C 623.805,485.832 816.41,263.32 1079.35,80.3594 v 0 l 4.5,-3.1485 4.53,3.1485 C 1351.3,263.32 1543.91,485.832 1662.72,742.238 v 0 c 96.09,207.633 117.31,379.422 127.76,463.802 v 0 l 3.1,23.89 c 6.71,48.05 8.99,120.35 8.95,189.77 v 0 c 0.01,106.12 -5.04,206.48 -5.38,213.03 v 0 l -0.24,4.69 -4.24,2.04 c -5.01,2.39 -222.81,106.42 -707.52,106.44 h -2.62 v 63.38 h 2.62 c 493.81,0.02 721.67,-106.23 735.07,-112.76 v 0 l 38.07,-18.32 2.15,-42.22 c 0.37,-7.19 5.46,-108.23 5.46,-216.28 v 0 c -0.03,-70.93 -2.1,-144.44 -9.55,-198.49 v 0 l 0.03,0.3 -3.03,-23.43 c -10.54,-85.27 -32.91,-266.271 -133.13,-482.49 v 0 C 1596.32,448.031 1395.36,216.66 1124.58,28.3398 v 0 L 1083.85,0 1043.16,28.3398 v 0" /><path
         id="path84"
         style="display:inline;fill:#2b2b2f;fill-opacity:1;fill-rule:nonzero;stroke:none"
         d="m 1082.54,1777.59 c -489.278,0 -712.102,-105.14 -721.372,-109.62 l -21.105,-10.17 -1.184,-23.45 c -0.582,-11.37 -14.059,-279.81 3.855,-408.78 l 2.996,-23.59 c 10.5,-84.76 32.317,-261.128 130.5,-473.031 C 597.602,466.922 794.395,239.98 1061.24,54.3398 l 22.62,-15.7382 22.62,15.7382 c 266.85,185.6402 463.65,412.5822 584.99,674.5822 98.16,211.91 119.95,388.298 130.46,473.058 l 3.04,23.59 c 17.92,128.97 4.43,397.41 3.82,408.78 l -1.18,23.45 -21.13,10.17 c -9.23,4.48 -232.06,109.62 -721.33,109.62 h -2.61" /><path
         id="path88"
         style="display:inline;fill:#b9c5a4;fill-opacity:1;fill-rule:nonzero;stroke:none"
         d="M 1069.84,108.109 C 823.047,284.809 639.867,498.891 526.262,744.148 v 0 C 431.777,948.172 410.563,1119.37 400.48,1200.75 v 0 l -3.113,24.48 c -5.847,42.18 -8.691,104.1 -8.699,185.02 v 0 c 0,76.39 2.609,150.59 4.176,188.07 v 0 l 0.613,15.89 14.871,5.68 c 75.727,28.82 290.766,94.6 674.212,94.6 v -31.68 c -371.942,-0.01 -582.032,-62.43 -658.255,-90.77 v 0 c -1.566,-38.59 -3.933,-109.35 -3.933,-181.79 v 0 c -0.016,-80.09 2.894,-141.21 8.414,-180.84 v 0 l 3.152,-24.72 c 10.035,-80.89 30.684,-247.499 123.094,-447.221 v 0 C 665.438,519.129 843.137,310.422 1083.87,137.031 v 0 c 240.76,173.399 418.4,382.098 528.81,620.438 v 0 c 92.43,199.679 113.07,366.311 123.09,447.291 v 0 l 3.18,24.83 c 5.5,39.45 8.41,100.53 8.39,180.6 v 0 c 0.01,72.66 -2.38,143.39 -3.94,181.85 v 0 c -76.23,28.35 -286.35,90.76 -658.25,90.77 h -2.61 v 31.68 h 2.61 c 383.44,0 598.52,-65.78 674.28,-94.61 v 0 l 14.73,-5.67 0.7,-15.85 c 1.55,-37.42 4.17,-111.56 4.17,-188.17 v 0 c -0.03,-80.89 -2.84,-142.78 -8.68,-184.8 v 0 l -3.16,-24.58 c -10.05,-81.46 -31.24,-252.669 -125.76,-456.662 v 0 C 1527.85,498.891 1344.7,284.809 1097.89,108.082 v 0 l -14.03,-10 -14.02,10.027 v 0" /><g
         id="g92"
         style="display:inline"><g
           clip-path="url(#clipPath98)"
           id="g94"
           style="display:inline"><path
             id="path100"
             style="fill:#565c45;fill-opacity:1;fill-rule:nonzero;stroke:none;stroke-width:0.992126;stroke-miterlimit:4;stroke-dasharray:none"
             d="m 383.699,23.2109 h 464.438 v 1781.16 H 383.699 Z" /><path
             id="path102"
             style="fill:#565c45;fill-opacity:1;fill-rule:nonzero;stroke:none"
             d="m 1333.87,23.3789 h 464.449 v 1781.13 H 1333.87 Z" /><path
             id="path104"
             style="fill:#b9c5a4;fill-opacity:1;fill-rule:nonzero;stroke:none"
             d="M 1333.75,1818.08 1333.76,23.0586 H 1212.61 V 1818.08 h 121.14" /><path
             id="path106"
             style="fill:#b9c5a4;fill-opacity:1;fill-rule:nonzero;stroke:none"
             d="M 969.695,1818.08 969.711,24.1094 H 848.137 V 1818.08 h 121.558" /><path
             id="path108"
             style="fill:#2b2b2f;fill-opacity:1;fill-rule:nonzero;stroke:none"
             d="M 1212.61,1818.91 V 23.8984 H 969.711 L 969.695,1818.91 h 242.915" /></g></g><path
         id="path112"
         style="display:inline;fill:#2b2b2f;fill-opacity:1;fill-rule:nonzero;stroke:none"
         d="m 2116.65,1582.52 28.44,41.89 -756.65,-153.32 -3.71,-0.75 -212.55,-212.27 H 995.531 l -212.558,212.27 -760.3675,154.07 28.4531,-41.89 c 52.9454,-77.99 318.1294,-466.94 358.4534,-495.1 l 543.269,-406.201 -58.238,-294.778 189.307,-128.66 189.29,128.66 -58.21,294.778 406.37,303.863 0.87,0.117 -0.05,0.492 136.08,101.729 c 40.29,28.1 305.5,417.11 358.45,495.1"
         sodipodi:nodetypes="cccccccccccccccccccc" /><path
         id="path114"
         style="display:inline;fill:#b9c5a4;fill-opacity:1;fill-rule:nonzero;stroke:none"
         d="m 1521.09,1314.87 4,-20.09 379.95,58.92 c -33.84,-48.02 -63.37,-89.26 -87.96,-122.86 l -433.82,-106.86 4.03,-20.09 378.39,58.67 c -19.75,-25.03 -25.38,-29.83 -26.76,-30.73 l -0.27,-0.17 -0.27,-0.2 -132.17,-98.82 -369.48,-93.91 4.03,-20.07 265.25,39.07 -332.24,-248.398 -5.16,-3.871 1.25,-6.32 56.68,-286.871 -46.45,-31.559 -36.74,132.949 -20.07,-3.762 15.85,-157.027 -55.28,-37.582 -52.38,35.602 16.05,159.007 -20.08,3.762 -37.229,-134.73 -49.043,33.34 56.668,286.871 1.258,6.32 -5.176,3.871 -332.855,248.887 268.578,-39.559 4.007,20.07 -373.488,94.94 -130.109,97.28 -0.133,0.1 -0.145,0.1 -0.726,0.51 -0.121,0.07 -0.121,0.09 c -1.403,0.91 -7.09,5.78 -27.149,31.2 l 381.449,-59.13 4.028,20.09 -437.106,107.67 c -24.39,33.34 -53.828,74.45 -87.699,122.51 l 382.969,-59.38 4.019,20.09 -434.429,107 c -29.696,42.61 -60.61,87.35 -90.324,130.75 l 641.429,-129.99 231.906,-231.6 0.082,-0.44 c 0.473,-3.16 0.958,-6.32 1.45,-9.48 1.41,-9.16 2.99,-18.4 4.53,-27.34 0.84,-4.91 1.68,-9.83 2.5,-14.76 l 0.02,-0.09 0.02,-0.09 7.71,-41.68 c 2.47,-13.34 5.2,-26.76 7.82,-39.75 l 0.39,-1.91 c 5.2,-25.49 11.03,-52.49 17.84,-82.568 5.55,-24.512 11.71,-50.5 19.38,-81.801 L 1073.86,833 h 19.91 l 14.29,58.102 c 7.74,31.488 13.9,57.48 19.42,81.82 7.25,32.088 12.92,58.318 17.84,82.548 2.57,12.54 5.51,27.15 8.22,41.62 l 7.71,41.74 0.02,0.09 v 0.09 c 0.83,4.93 1.67,9.83 2.5,14.76 1.54,8.94 3.11,18.16 4.54,27.36 0.47,3.01 0.92,6.06 1.39,9.12 l 0.13,0.79 231.87,231.59 641.45,129.98 c -30.34,-44.28 -61.45,-89.31 -90.89,-131.54 z m 544.78,252.81 -669.21,-135.61 -236.47,-236.15 c -0.67,-4.42 -1.33,-8.83 -2.02,-13.23 -2.15,-14.07 -4.68,-28.01 -6.99,-42 l -7.72,-41.71 c -2.6,-13.89 -5.37,-27.7 -8.18,-41.47 -5.62,-27.59 -11.63,-55 -17.79,-82.33 -6.22,-27.328 -12.72,-54.508 -19.38,-81.641 l -14.29,-58.09 -14.22,58.09 c -6.64,27.133 -13.15,54.332 -19.34,81.652 -6.19,27.319 -12.16,54.769 -17.79,82.339 -2.79,13.79 -5.6,27.59 -8.18,41.49 l -7.72,41.68 c -2.33,14 -4.85,27.93 -7.02,41.99 -0.68,4.4 -1.35,8.8 -2.02,13.21 l -236.475,236.17 -669.223,135.61 c 33.102,-48.46 70.07,-102.08 106.859,-154.84 l 438.18,-107.93 -406.793,63.06 c 37.535,-53.43 73.633,-104.11 103.883,-145.39 L 784.672,1114.02 377.82,1177.1 c 22.864,-30.03 39.188,-49.8 45.36,-53.85 l 0.73,-0.51 131.738,-98.5 375.481,-95.451 -308.645,45.481 365.289,-273.149 -57.972,-293.519 66.472,-45.18 41.047,148.5 -16.66,-165.07 63.19,-42.942 66.09,44.91 -16.47,163.102 40.55,-146.742 63.89,43.422 -57.99,293.519 364.66,272.641 -305.32,-44.973 371.46,94.421 133.81,100.04 c 6.13,4.02 22.32,23.6 45.01,53.37 l -403.83,-62.6 437.45,107.76 c 30.27,41.31 66.46,92.11 104.14,145.74 l -403.77,-62.61 434.93,107.14 c 36.97,53.01 74.13,106.93 107.41,155.63" /><path
         id="path118"
         style="display:inline;fill:#b9c5a4;fill-opacity:1;fill-rule:nonzero;stroke:none"
         d="m 1059.13,1402.27 h 72.07 l -12.88,-6.27 -7.41,-3.59 1.91,-8 31.27,-131.02 c -1.18,-3.32 -2.36,-6.65 -3.52,-9.99 -2.89,-8.35 -5.7,-16.88 -8.42,-25.12 -1.55,-4.77 -3.11,-9.52 -4.7,-14.27 l -0.04,-0.09 -0.02,-0.1 -12.39,-39.62 c -4.21,-13.52 -8.25,-27.21 -11.99,-40.01 -5.9,-20.12 -12.05,-42.07 -19.18,-68.3 -6.71,24.73 -13.01,47.17 -19.19,68.28 l -0.08,0.31 c -3.81,13.03 -7.77,26.49 -11.89,39.69 l -12.39,39.63 -0.02,0.1 -0.04,0.09 c -1.57,4.71 -3.12,9.43 -4.67,14.16 -2.73,8.29 -5.54,16.86 -8.46,25.27 -1.13,3.29 -2.3,6.61 -3.47,9.92 z m -28.63,-201.53 12.39,-39.61 c 4.11,-13.21 8.01,-26.53 11.91,-39.83 7.79,-26.62 15.21,-53.4 22.44,-80.27 2.24,-8.36 4.42,-16.76 6.59,-25.18 2.2,8.42 4.36,16.82 6.61,25.19 7.23,26.86 14.61,53.67 22.42,80.27 3.89,13.32 7.8,26.62 11.91,39.84 l 12.4,39.61 c 4.38,13.09 8.58,26.27 13.1,39.29 1.46,4.28 2.97,8.52 4.47,12.78 l -31.93,133.95 50.24,25.74 h -122.02 l -38.08,-159.73 c 1.49,-4.24 2.99,-8.48 4.46,-12.74 4.53,-13.02 8.71,-26.22 13.09,-39.31" /></g></g></svg>
